{
.appVersion = "1209";
DisplayStrings = (
"oanafncedn/Placeholder dll/Placeholder ll\012nado/Placeholder ende"
);
copyright = "Copyright (c) 2013 by Jacques Le Bailly. All rights reserved.";
customParameters = (
{
name = description;
value = "Copyright (c) 2013 by Jacques Le Bailly. All rights reserved.";
},
{
name = trademark;
value = "NPOjlbTwoP is a trademark of Jacques Le Bailly.";
},
{
name = vendorID;
value = bvf;
},
{
name = panose;
value = (
2,
0,
5,
0,
3,
0,
0,
2,
0,
4
);
},
{
name = unicodeRanges;
value = (
0
);
},
{
name = codePageRanges;
value = (
1252
);
},
{
name = glyphOrder;
value = (
A,
Aogonek,
AE,
B,
C,
D,
Eth,
E,
Eogonek,
F,
G,
H,
Hbar,
I,
Iogonek,
I_J.loclNLD,
J,
K,
L,
Lcaron,
Ldot,
Lslash,
M,
N,
Eng,
O,
Oslash,
Ohorn,
Oogonek,
OE,
P,
Thorn,
Q,
R,
S,
Germandbls,
Schwa,
T,
Tbar,
U,
Uogonek,
Uhorn,
V,
W,
X,
Y,
Z,
a,
aogonek,
ae,
b,
c,
d,
dcaron,
dcroat,
eth,
e,
eogonek,
f,
g,
h,
hbar,
i,
idotless,
iogonek,
i_j.loclNLD,
j,
jdotless,
k,
kgreenlandic,
l,
ldot,
lcaron,
lslash,
m,
n,
eng,
o,
oogonek,
oslash,
ohorn,
oe,
p,
thorn,
q,
r,
s,
germandbls,
schwa,
t,
tbar,
tcaron,
u,
uogonek,
uhorn,
v,
w,
x,
y,
z
);
}
);
date = "2013-08-08 11:44:06 +0000";
disablesNiceNames = 1;
familyName = LV_Kalli;
fontMaster = (
{
alignmentZones = (
"{720, 20}",
"{630, 20}",
"{500, 20}",
"{0, -20}",
"{-180, -20}"
);
ascender = 720;
capHeight = 630;
customParameters = (
{
name = typoAscender;
value = 621;
},
{
name = typoDescender;
value = -207;
},
{
name = typoLineGap;
value = 0;
},
{
name = winAscent;
value = 690;
},
{
name = winDescent;
value = 151;
},
{
name = hheaAscender;
value = 621;
},
{
name = hheaDescender;
value = -207;
},
{
name = strikeoutPosition;
value = 207;
},
{
name = strikeoutSize;
value = 41;
}
);
descender = -180;
id = "2510F216-D89B-43CC-ACD1-209C5F77631B";
userData = {
GSCornerRadius = 100;
};
weight = Light;
weightValue = 93;
widthValue = 5;
xHeight = 497;
},
{
alignmentZones = (
"{720, 20}",
"{630, 20}",
"{515, 20}",
"{0, -20}",
"{-180, -20}"
);

glyphs = (
{
glyphname = H;
lastChange = "2019-02-07 21:08:51 +0000";
layers = (
{
hints = (
{
horizontal = 1;
place = "{0, 21}";
target = up;
type = BottomGhost;
},
{
horizontal = 1;
place = "{292, 65}";
type = Stem;
},
{
horizontal = 1;
place = "{629, -20}";
target = down;
type = TopGhost;
},
{
place = "{84, 77}";
type = Stem;
},
{
place = "{469, 77}";
type = Stem;
}
);
layerId = "2510F216-D89B-43CC-ACD1-209C5F77631B";
paths = (
{
closed = 1;
nodes = (
"469 10 LINE SMOOTH",
"469 6 OFFCURVE",
"475 0 OFFCURVE",
"480 0 CURVE SMOOTH",
"536 0 LINE SMOOTH",
"541 0 OFFCURVE",
"546 6 OFFCURVE",
"546 10 CURVE SMOOTH",
"546 618 LINE SMOOTH",
"546 623 OFFCURVE",
"541 629 OFFCURVE",
"536 629 CURVE SMOOTH",
"480 629 LINE SMOOTH",
"475 629 OFFCURVE",
"469 623 OFFCURVE",
"469 619 CURVE SMOOTH",
"469 358 LINE",
"161 358 LINE",
"161 618 LINE SMOOTH",
"161 623 OFFCURVE",
"155 629 OFFCURVE",
"150 629 CURVE SMOOTH",
"94 629 LINE SMOOTH",
"89 629 OFFCURVE",
"84 623 OFFCURVE",
"84 619 CURVE SMOOTH",
"84 10 LINE SMOOTH",
"84 6 OFFCURVE",
"89 0 OFFCURVE",
"94 0 CURVE SMOOTH",
"150 0 LINE SMOOTH",
"155 0 OFFCURVE",
"161 6 OFFCURVE",
"161 10 CURVE SMOOTH",
"161 292 LINE",
"469 292 LINE"
);
}
);
width = 630;
},
{
hints = (
{
horizontal = 1;
place = "{0, 21}";
target = up;
type = BottomGhost;
},
{
horizontal = 1;
place = "{260, 122}";
type = Stem;
},
{
horizontal = 1;
place = "{629, -20}";
target = down;
type = TopGhost;
},
{
place = "{62, 141}";
type = Stem;
},
{
place = "{444, 141}";
type = Stem;
}
);
layerId = "5839A0EB-CD27-4B31-AA48-098F33CA22E9";
paths = (
{
closed = 1;
nodes = (
"444 37 LINE SMOOTH",
"444 17 OFFCURVE",
"462 0 OFFCURVE",
"481 0 CURVE SMOOTH",
"547 0 LINE SMOOTH",
"566 0 OFFCURVE",
"584 17 OFFCURVE",
"584 37 CURVE SMOOTH",
"584 593 LINE SMOOTH",
"584 613 OFFCURVE",
"566 629 OFFCURVE",
"547 629 CURVE SMOOTH",
"481 629 LINE SMOOTH",
"462 629 OFFCURVE",
"444 613 OFFCURVE",
"444 592 CURVE SMOOTH",
"444 382 LINE",
"203 382 LINE",
"203 593 LINE SMOOTH",
"203 613 OFFCURVE",
"185 629 OFFCURVE",
"166 629 CURVE SMOOTH",
"99 629 LINE SMOOTH",
"80 629 OFFCURVE",
"62 613 OFFCURVE",
"62 592 CURVE SMOOTH",
"62 37 LINE SMOOTH",
"62 17 OFFCURVE",
"80 0 OFFCURVE",
"99 0 CURVE SMOOTH",
"166 0 LINE SMOOTH",
"185 0 OFFCURVE",
"203 17 OFFCURVE",
"203 37 CURVE SMOOTH",
"203 260 LINE",
"444 260 LINE"
);
}
);
width = 647;
}
);
note = H;
unicode = 0048;
},
{
glyphname = N;
lastChange = "2019-02-07 21:08:51 +0000";
layers = (
{
hints = (
{
horizontal = 1;
place = "{0, 21}";
target = up;
type = BottomGhost;
},
{
horizontal = 1;
place = "{629, -20}";
target = down;
type = TopGhost;
},
{
place = "{84, 77}";
type = Stem;
},
{
place = "{469, 77}";
type = Stem;
}
);
layerId = "2510F216-D89B-43CC-ACD1-209C5F77631B";
paths = (
{
closed = 1;
nodes = (
"94 629 LINE SMOOTH",
"89 629 OFFCURVE",
"84 623 OFFCURVE",
"84 619 CURVE SMOOTH",
"84 10 LINE SMOOTH",
"84 6 OFFCURVE",
"89 0 OFFCURVE",
"94 0 CURVE SMOOTH",
"150 0 LINE SMOOTH",
"155 0 OFFCURVE",
"161 6 OFFCURVE",
"161 10 CURVE SMOOTH",
"161 452 LINE",
"475 20 LINE",
"483 12 OFFCURVE",
"490 0 OFFCURVE",
"504 0 CURVE SMOOTH",
"536 0 LINE SMOOTH",
"541 0 OFFCURVE",
"546 6 OFFCURVE",
"546 10 CURVE SMOOTH",
"546 618 LINE SMOOTH",
"546 623 OFFCURVE",
"541 629 OFFCURVE",
"536 629 CURVE SMOOTH",
"480 629 LINE SMOOTH",
"475 629 OFFCURVE",
"469 623 OFFCURVE",
"469 618 CURVE SMOOTH",
"469 176 LINE",
"155 609 LINE",
"147 618 OFFCURVE",
"140 629 OFFCURVE",
"125 629 CURVE SMOOTH"
);
}
);
width = 630;
},
{
hints = (
{
horizontal = 1;
place = "{0, 21}";
target = up;
type = BottomGhost;
},
{
horizontal = 1;
place = "{629, -20}";
target = down;
type = TopGhost;
},
{
place = "{62, 141}";
type = Stem;
},
{
place = "{444, 141}";
type = Stem;
}
);
layerId = "5839A0EB-CD27-4B31-AA48-098F33CA22E9";
paths = (
{
closed = 1;
nodes = (
"99 629 LINE SMOOTH",
"80 629 OFFCURVE",
"62 613 OFFCURVE",
"62 592 CURVE SMOOTH",
"62 37 LINE SMOOTH",
"62 17 OFFCURVE",
"80 0 OFFCURVE",
"99 0 CURVE SMOOTH",
"166 0 LINE SMOOTH",
"185 0 OFFCURVE",
"203 17 OFFCURVE",
"203 37 CURVE SMOOTH",
"203 360 LINE",
"450 20 LINE",
"455 11 OFFCURVE",
"464 0 OFFCURVE",
"487 0 CURVE SMOOTH",
"547 0 LINE SMOOTH",
"566 0 OFFCURVE",
"584 17 OFFCURVE",
"584 37 CURVE SMOOTH",
"584 593 LINE SMOOTH",
"584 613 OFFCURVE",
"566 629 OFFCURVE",
"547 629 CURVE SMOOTH",
"481 629 LINE SMOOTH",
"462 629 OFFCURVE",
"444 613 OFFCURVE",
"444 593 CURVE SMOOTH",
"444 268 LINE",
"197 609 LINE",
"191 618 OFFCURVE",
"182 629 OFFCURVE",
"159 629 CURVE SMOOTH"
);
}
);
width = 647;
}
);
note = N;
unicode = 004E;
},
{
color = 3;
glyphname = a;
lastChange = "2019-02-07 21:08:51 +0000";
layers = (
{
background = {
paths = (
{
closed = 1;
nodes = (
"385 457 LINE",
"416 492 LINE",
"386 495 OFFCURVE",
"354 497 OFFCURVE",
"330 497 CURVE SMOOTH",
"177 497 OFFCURVE",
"58 418 OFFCURVE",
"58 247 CURVE SMOOTH",
"58 227 LINE SMOOTH",
"58 102 OFFCURVE",
"126 -4 OFFCURVE",
"278 -4 CURVE SMOOTH",
"325 -4 OFFCURVE",
"344 5 OFFCURVE",
"367 28 CURVE SMOOTH",
"387 49 LINE",
"387 0 LINE",
"462 0 LINE",
"462 671 LINE",
"385 671 LINE"
);
},
{
closed = 1;
nodes = (
"364 73 OFFCURVE",
"340 69 OFFCURVE",
"314 69 CURVE SMOOTH",
"189 69 OFFCURVE",
"142 118 OFFCURVE",
"142 247 CURVE SMOOTH",
"142 367 OFFCURVE",
"202 423 OFFCURVE",
"312 423 CURVE SMOOTH",
"339 423 OFFCURVE",
"359 422 OFFCURVE",
"385 418 CURVE",
"385 79 LINE"
);
}
);
};
hints = (
{
horizontal = 1;
place = "{-4, 74}";
type = Stem;
},
{
horizontal = 1;
place = "{206, 79}";
type = Stem;
},
{
horizontal = 1;
place = "{425, 75}";
type = Stem;
},
{
place = "{55, 72}";
type = Stem;
},
{
place = "{333, 77}";
type = Stem;
},
{
horizontal = 1;
place = "{0, 21}";
target = up;
type = BottomGhost;
}
);
layerId = "2510F216-D89B-43CC-ACD1-209C5F77631B";
paths = (
{
closed = 1;
nodes = (
"421 496 OFFCURVE",
"369 501 OFFCURVE",
"330 501 CURVE SMOOTH",
"161 501 OFFCURVE",
"58 406 OFFCURVE",
"58 248 CURVE SMOOTH",
"58 228 LINE SMOOTH",
"58 85 OFFCURVE",
"142 -4 OFFCURVE",
"278 -4 CURVE SMOOTH",
"321 -4 OFFCURVE",
"342 3 OFFCURVE",
"367 28 CURVE SMOOTH",
"387 49 LINE",
"387 0 LINE",
"462 0 LINE",
"462 489 LINE"
);
},
{
closed = 1;
nodes = (
"142 365 OFFCURVE",
"199 427 OFFCURVE",
"312 427 CURVE SMOOTH",
"340 427 OFFCURVE",
"359 425 OFFCURVE",
"385 422 CURVE",
"385 79 LINE",
"362 72 OFFCURVE",
"338 69 OFFCURVE",
"314 69 CURVE SMOOTH",
"190 69 OFFCURVE",
"142 119 OFFCURVE",
"142 248 CURVE SMOOTH"
);
}
);
width = 546;
},
{
background = {
paths = (
{
closed = 1;
nodes = (
"470 512 OFFCURVE",
"405 518 OFFCURVE",
"360 518 CURVE SMOOTH",
"165 518 OFFCURVE",
"50 420 OFFCURVE",
"50 250 CURVE SMOOTH",
"50 229 LINE SMOOTH",
"50 87 OFFCURVE",
"138 -4 OFFCURVE",
"275 -4 CURVE SMOOTH",
"304 -4 OFFCURVE",
"329 6 OFFCURVE",
"350 26 CURVE SMOOTH",
"376 50 LINE",
"376 0 LINE",
"512 0 LINE",
"512 503 LINE"
);
},
{
closed = 1;
nodes = (
"202 348 OFFCURVE",
"245 396 OFFCURVE",
"323 396 CURVE SMOOTH",
"344 396 OFFCURVE",
"357 395 OFFCURVE",
"371 392 CURVE",
"371 123 LINE",
"354 119 OFFCURVE",
"341 118 OFFCURVE",
"326 118 CURVE SMOOTH",
"243 118 OFFCURVE",
"202 162 OFFCURVE",
"202 257 CURVE SMOOTH"
);
}
);
};
hints = (
{
horizontal = 1;
place = "{-4, 113}";
type = Stem;
},
{
horizontal = 1;
place = "{213, 96}";
type = Stem;
},
{
horizontal = 1;
place = "{392, 126}";
type = Stem;
},
{
place = "{30, 126}";
type = Stem;
},
{
place = "{297, 141}";
type = Stem;
},
{
horizontal = 1;
place = "{0, 21}";
target = up;
type = BottomGhost;
}
);
layerId = "5839A0EB-CD27-4B31-AA48-098F33CA22E9";
paths = (
{
closed = 1;
nodes = (
"469 512 OFFCURVE",
"403 518 OFFCURVE",
"352 518 CURVE SMOOTH",
"164 518 OFFCURVE",
"50 419 OFFCURVE",
"50 250 CURVE SMOOTH",
"50 238 LINE SMOOTH",
"50 91 OFFCURVE",
"135 -4 OFFCURVE",
"267 -4 CURVE SMOOTH",
"303 -4 OFFCURVE",
"329 5 OFFCURVE",
"351 26 CURVE SMOOTH",
"376 50 LINE",
"376 0 LINE",
"512 0 LINE",
"512 503 LINE"
);
},
{
closed = 1;
nodes = (
"202 348 OFFCURVE",
"245 396 OFFCURVE",
"331 396 CURVE SMOOTH",
"347 396 OFFCURVE",
"357 395 OFFCURVE",
"371 392 CURVE",
"371 122 LINE",
"352 119 OFFCURVE",
"340 118 OFFCURVE",
"326 118 CURVE SMOOTH",
"243 118 OFFCURVE",
"202 162 OFFCURVE",
"202 252 CURVE SMOOTH"
);
}
);
width = 574;
}
);
note = a;
unicode = 0061;
},
{
glyphname = b;
lastChange = "2019-02-07 21:08:51 +0000";
layers = (
{
hints = (
{
horizontal = 1;
place = "{0, 76}";
type = Stem;
},
{
horizontal = 1;
place = "{425, 76}";
type = Stem;
},
{
horizontal = 1;
place = "{660, -20}";
target = down;
type = TopGhost;
},
{
place = "{84, 77}";
type = Stem;
},
{
place = "{401, 81}";
type = Stem;
}
);
layerId = "2510F216-D89B-43CC-ACD1-209C5F77631B";
paths = (
{
closed = 1;
nodes = (
"94 660 LINE SMOOTH",
"89 660 OFFCURVE",
"84 655 OFFCURVE",
"84 650 CURVE SMOOTH",
"84 10 LINE SMOOTH",
"84 6 OFFCURVE",
"89 0 OFFCURVE",
"94 0 CURVE SMOOTH",
"221 0 LINE SMOOTH",
"388 0 OFFCURVE",
"483 70 OFFCURVE",
"483 231 CURVE SMOOTH",
"483 261 LINE SMOOTH",
"483 394 OFFCURVE",
"423 501 OFFCURVE",
"279 501 CURVE SMOOTH",
"224 501 OFFCURVE",
"204 492 OFFCURVE",
"193 481 CURVE SMOOTH",
"161 449 LINE",
"161 650 LINE SMOOTH",
"161 654 OFFCURVE",
"155 660 OFFCURVE",
"150 660 CURVE SMOOTH"
);
},
{
closed = 1;
nodes = (
"227 425 LINE SMOOTH",
"362 425 OFFCURVE",
"401 377 OFFCURVE",
"401 226 CURVE SMOOTH",
"400 76 LINE",
"161 76 LINE",
"161 425 LINE"
);
}
);
width = 546;
},
{
hints = (
{
horizontal = 1;
place = "{0, 122}";
type = Stem;
},
{
horizontal = 1;
place = "{397, 122}";
type = Stem;
},
{
horizontal = 1;
place = "{669, -20}";
target = down;
type = TopGhost;
},
{
place = "{62, 141}";
type = Stem;
},
{
place = "{355, 149}";
type = Stem;
}
);
layerId = "5839A0EB-CD27-4B31-AA48-098F33CA22E9";
paths = (
{
closed = 1;
nodes = (
"99 669 LINE SMOOTH",
"80 669 OFFCURVE",
"62 652 OFFCURVE",
"62 632 CURVE SMOOTH",
"62 37 LINE SMOOTH",
"62 17 OFFCURVE",
"80 0 OFFCURVE",
"99 0 CURVE SMOOTH",
"245 0 LINE SMOOTH",
"398 0 OFFCURVE",
"504 80 OFFCURVE",
"504 252 CURVE SMOOTH",
"504 278 LINE SMOOTH",
"504 447 OFFCURVE",
"421 518 OFFCURVE",
"303 518 CURVE SMOOTH",
"265 518 OFFCURVE",
"244 512 OFFCURVE",
"226 494 CURVE SMOOTH",
"203 471 LINE",
"203 632 LINE SMOOTH",
"203 652 OFFCURVE",
"185 669 OFFCURVE",
"166 669 CURVE SMOOTH"
);
},
{
closed = 1;
nodes = (
"245 397 LINE SMOOTH",
"316 397 OFFCURVE",
"356 366 OFFCURVE",
"356 267 CURVE SMOOTH",
"354 122 LINE",
"203 122 LINE",
"203 397 LINE"
);
}
);
width = 546;
}
);
note = b;
unicode = 0062;
},
{
glyphname = c;
lastChange = "2019-02-07 21:08:51 +0000";
layers = (
{
background = {
paths = (
{
closed = 1;
nodes = (
"733 501 OFFCURVE",
"637 392 OFFCURVE",
"637 248 CURVE SMOOTH",
"637 228 LINE SMOOTH",
"637 86 OFFCURVE",
"733 -4 OFFCURVE",
"860 -4 CURVE SMOOTH",
"1000 -4 OFFCURVE",
"1092 104 OFFCURVE",
"1092 248 CURVE SMOOTH",
"1092 268 LINE SMOOTH",
"1092 411 OFFCURVE",
"1000 501 OFFCURVE",
"876 501 CURVE SMOOTH"
);
},
{
closed = 1;
nodes = (
"777 70 OFFCURVE",
"722 128 OFFCURVE",
"722 247 CURVE SMOOTH",
"722 362 OFFCURVE",
"782 426 OFFCURVE",
"871 426 CURVE SMOOTH",
"956 426 OFFCURVE",
"1009 368 OFFCURVE",
"1009 250 CURVE SMOOTH",
"1009 136 OFFCURVE",
"951 70 OFFCURVE",
"864 70 CURVE SMOOTH"
);
},
{
closed = 1;
nodes = (
"421 496 OFFCURVE",
"369 501 OFFCURVE",
"330 501 CURVE SMOOTH",
"161 501 OFFCURVE",
"58 406 OFFCURVE",
"58 248 CURVE SMOOTH",
"58 228 LINE SMOOTH",
"58 85 OFFCURVE",
"142 -4 OFFCURVE",
"278 -4 CURVE SMOOTH",
"321 -4 OFFCURVE",
"342 3 OFFCURVE",
"367 28 CURVE SMOOTH",
"387 49 LINE",
"387 0 LINE",
"462 0 LINE",
"462 489 LINE"
);
},
{
closed = 1;
nodes = (
"142 365 OFFCURVE",
"199 427 OFFCURVE",
"312 427 CURVE SMOOTH",
"340 427 OFFCURVE",
"359 425 OFFCURVE",
"385 422 CURVE",
"385 79 LINE",
"362 72 OFFCURVE",
"338 69 OFFCURVE",
"314 69 CURVE SMOOTH",
"190 69 OFFCURVE",
"142 119 OFFCURVE",
"142 248 CURVE SMOOTH"
);
}
);
};
layerId = "2510F216-D89B-43CC-ACD1-209C5F77631B";
paths = (
{
closed = 1;
nodes = (
"357 -4 OFFCURVE",
"400 7 OFFCURVE",
"422 19 CURVE",
"439 96 LINE",
"397 79 OFFCURVE",
"363 70 OFFCURVE",
"322 70 CURVE SMOOTH",
"197 70 OFFCURVE",
"142 128 OFFCURVE",
"142 247 CURVE SMOOTH",
"142 357 OFFCURVE",
"203 425 OFFCURVE",
"315 425 CURVE SMOOTH",
"363 425 OFFCURVE",
"397 417 OFFCURVE",
"439 402 CURVE",
"430 486 LINE",
"400 497 OFFCURVE",
"357 501 OFFCURVE",
"324 501 CURVE SMOOTH",
"153 501 OFFCURVE",
"58 392 OFFCURVE",
"58 248 CURVE SMOOTH",
"58 228 LINE SMOOTH",
"58 83 OFFCURVE",
"151 -4 OFFCURVE",
"299 -4 CURVE SMOOTH"
);
}
);
width = 455;
},
{
background = {
paths = (
{
closed = 1;
nodes = (
"358 -4 OFFCURVE",
"405 5 OFFCURVE",
"448 23 CURVE",
"469 147 LINE",
"420 130 OFFCURVE",
"376 122 OFFCURVE",
"340 122 CURVE SMOOTH",
"246 122 OFFCURVE",
"204 162 OFFCURVE",
"204 252 CURVE SMOOTH",
"204 347 OFFCURVE",
"252 395 OFFCURVE",
"344 395 CURVE SMOOTH",
"382 395 OFFCURVE",
"425 387 OFFCURVE",
"468 370 CURVE",
"459 503 LINE",
"423 513 OFFCURVE",
"378 518 OFFCURVE",
"339 518 CURVE SMOOTH",
"161 518 OFFCURVE",
"50 416 OFFCURVE",
"50 253 CURVE SMOOTH",
"50 241 LINE SMOOTH",
"50 83 OFFCURVE",
"144 -4 OFFCURVE",
"312 -4 CURVE SMOOTH"
);
}
);
};
layerId = "5839A0EB-CD27-4B31-AA48-098F33CA22E9";
paths = (
{
closed = 1;
nodes = (
"355 -4 OFFCURVE",
"400 5 OFFCURVE",
"443 23 CURVE",
"464 147 LINE",
"416 130 OFFCURVE",
"373 122 OFFCURVE",
"338 122 CURVE SMOOTH",
"245 122 OFFCURVE",
"204 162 OFFCURVE",
"204 252 CURVE SMOOTH",
"204 347 OFFCURVE",
"252 395 OFFCURVE",
"342 395 CURVE SMOOTH",
"378 395 OFFCURVE",
"421 386 OFFCURVE",
"463 370 CURVE",
"454 503 LINE",
"418 513 OFFCURVE",
"374 518 OFFCURVE",
"336 518 CURVE SMOOTH",
"160 518 OFFCURVE",
"50 416 OFFCURVE",
"50 253 CURVE SMOOTH",
"50 241 LINE SMOOTH",
"50 83 OFFCURVE",
"143 -4 OFFCURVE",
"309 -4 CURVE SMOOTH"
);
}
);
width = 477;
}
);
unicode = 0063;
},
{
color = 3;
glyphname = d;
lastChange = "2019-02-07 21:15:40 +0000";
layers = (
{
background = {
paths = (
{
closed = 1;
nodes = (
"421 496 OFFCURVE",
"369 501 OFFCURVE",
"330 501 CURVE SMOOTH",
"161 501 OFFCURVE",
"58 406 OFFCURVE",
"58 248 CURVE SMOOTH",
"58 228 LINE SMOOTH",
"58 85 OFFCURVE",
"142 -4 OFFCURVE",
"278 -4 CURVE SMOOTH",
"321 -4 OFFCURVE",
"342 3 OFFCURVE",
"367 28 CURVE SMOOTH",
"387 49 LINE",
"387 0 LINE",
"462 0 LINE",
"462 489 LINE"
);
},
{
closed = 1;
nodes = (
"142 365 OFFCURVE",
"199 427 OFFCURVE",
"312 427 CURVE SMOOTH",
"340 427 OFFCURVE",
"359 425 OFFCURVE",
"385 422 CURVE",
"385 79 LINE",
"362 72 OFFCURVE",
"338 69 OFFCURVE",
"314 69 CURVE SMOOTH",
"190 69 OFFCURVE",
"142 119 OFFCURVE",
"142 248 CURVE SMOOTH"
);
}
);
};
hints = (
{
horizontal = 1;
place = "{-4, 76}";
type = Stem;
},
{
horizontal = 1;
place = "{420, 77}";
type = Stem;
},
{
horizontal = 1;
place = "{671, -20}";
target = down;
type = TopGhost;
},
{
place = "{63, 81}";
type = Stem;
},
{
place = "{382, 77}";
type = Stem;
},
{
horizontal = 1;
place = "{0, 21}";
target = up;
type = BottomGhost;
}
);
layerId = "2510F216-D89B-43CC-ACD1-209C5F77631B";
paths = (
{
closed = 1;
nodes = (
"385 457 LINE",
"416 495 LINE",
"389 498 OFFCURVE",
"358 501 OFFCURVE",
"330 501 CURVE SMOOTH",
"161 501 OFFCURVE",
"58 406 OFFCURVE",
"58 248 CURVE SMOOTH",
"58 228 LINE SMOOTH",
"58 85 OFFCURVE",
"142 -4 OFFCURVE",
"278 -4 CURVE SMOOTH",
"321 -4 OFFCURVE",
"342 3 OFFCURVE",
"367 28 CURVE SMOOTH",
"387 49 LINE",
"387 0 LINE",
"462 0 LINE",
"462 720 LINE",
"385 720 LINE"
);
},
{
closed = 1;
nodes = (
"362 72 OFFCURVE",
"338 69 OFFCURVE",
"314 69 CURVE SMOOTH",
"190 69 OFFCURVE",
"142 119 OFFCURVE",
"142 248 CURVE SMOOTH",
"142 365 OFFCURVE",
"199 427 OFFCURVE",
"312 427 CURVE SMOOTH",
"340 427 OFFCURVE",
"359 425 OFFCURVE",
"385 422 CURVE",
"385 79 LINE"
);
}
);
width = 546;
},
{
background = {
paths = (
{
closed = 1;
nodes = (
"1041 671 LINE SMOOTH",
"1022 671 OFFCURVE",
"1004 654 OFFCURVE",
"1004 633 CURVE SMOOTH",
"1004 514 LINE",
"963 514 LINE SMOOTH",
"810 514 OFFCURVE",
"704 434 OFFCURVE",
"704 262 CURVE SMOOTH",
"704 236 LINE SMOOTH",
"704 67 OFFCURVE",
"787 -4 OFFCURVE",
"905 -4 CURVE SMOOTH",
"946 -4 OFFCURVE",
"966 2 OFFCURVE",
"984 20 CURVE SMOOTH",
"1009 45 LINE",
"1009 36 LINE SMOOTH",
"1009 17 OFFCURVE",
"1027 0 OFFCURVE",
"1046 0 CURVE SMOOTH",
"1108 0 LINE SMOOTH",
"1127 0 OFFCURVE",
"1145 17 OFFCURVE",
"1145 37 CURVE SMOOTH",
"1145 634 LINE SMOOTH",
"1145 654 OFFCURVE",
"1127 671 OFFCURVE",
"1108 671 CURVE SMOOTH"
);
},
{
closed = 1;
nodes = (
"853 396 LINE",
"1004 396 LINE",
"1004 118 LINE",
"963 118 LINE SMOOTH",
"892 118 OFFCURVE",
"851 148 OFFCURVE",
"852 247 CURVE SMOOTH"
);
},
{
closed = 1;
nodes = (
"470 512 OFFCURVE",
"405 518 OFFCURVE",
"360 518 CURVE SMOOTH",
"165 518 OFFCURVE",
"50 420 OFFCURVE",
"50 250 CURVE SMOOTH",
"50 238 LINE SMOOTH",
"50 87 OFFCURVE",
"138 -4 OFFCURVE",
"267 -4 CURVE SMOOTH",
"304 -4 OFFCURVE",
"329 6 OFFCURVE",
"350 26 CURVE SMOOTH",
"376 50 LINE",
"376 0 LINE",
"512 0 LINE",
"512 503 LINE"
);
},
{
closed = 1;
nodes = (
"202 353 OFFCURVE",
"249 396 OFFCURVE",
"331 396 CURVE SMOOTH",
"347 396 OFFCURVE",
"357 395 OFFCURVE",
"371 392 CURVE",
"371 122 LINE",
"354 119 OFFCURVE",
"341 118 OFFCURVE",
"326 118 CURVE SMOOTH",
"243 118 OFFCURVE",
"202 161 OFFCURVE",
"202 255 CURVE SMOOTH"
);
}
);
};
hints = (
{
horizontal = 1;
place = "{-4, 122}";
type = Stem;
},
{
horizontal = 1;
place = "{396, 118}";
type = Stem;
},
{
horizontal = 1;
place = "{671, -20}";
target = down;
type = TopGhost;
},
{
place = "{41, 149}";
type = Stem;
},
{
place = "{342, 141}";
type = Stem;
},
{
horizontal = 1;
place = "{0, 21}";
target = up;
type = BottomGhost;
}
);
layerId = "5839A0EB-CD27-4B31-AA48-098F33CA22E9";
paths = (
{
closed = 1;
nodes = (
"371 480 LINE",
"438 514 LINE",
"400 517 OFFCURVE",
"376 518 OFFCURVE",
"352 518 CURVE SMOOTH",
"164 518 OFFCURVE",
"50 419 OFFCURVE",
"50 250 CURVE SMOOTH",
"50 238 LINE SMOOTH",
"50 91 OFFCURVE",
"135 -4 OFFCURVE",
"267 -4 CURVE SMOOTH",
"303 -4 OFFCURVE",
"329 5 OFFCURVE",
"350 26 CURVE SMOOTH",
"376 50 LINE",
"376 0 LINE",
"512 0 LINE",
"512 720 LINE",
"371 720 LINE"
);
},
{
closed = 1;
nodes = (
"352 119 OFFCURVE",
"340 118 OFFCURVE",
"326 118 CURVE SMOOTH",
"243 118 OFFCURVE",
"202 162 OFFCURVE",
"202 252 CURVE SMOOTH",
"202 348 OFFCURVE",
"245 396 OFFCURVE",
"331 396 CURVE SMOOTH",
"347 396 OFFCURVE",
"357 395 OFFCURVE",
"371 392 CURVE",
"371 122 LINE"
);
}
);
width = 574;
}
);
note = d;
unicode = 0064;
},
{
color = 3;
glyphname = e;
lastChange = "2019-02-07 21:08:51 +0000";
layers = (
{
background = {
paths = (
{
closed = 1;
nodes = (
"421 496 OFFCURVE",
"369 501 OFFCURVE",
"330 501 CURVE SMOOTH",
"161 501 OFFCURVE",
"58 406 OFFCURVE",
"58 248 CURVE SMOOTH",
"58 228 LINE SMOOTH",
"58 85 OFFCURVE",
"142 -4 OFFCURVE",
"278 -4 CURVE SMOOTH",
"321 -4 OFFCURVE",
"342 3 OFFCURVE",
"367 28 CURVE SMOOTH",
"387 49 LINE",
"387 0 LINE",
"462 0 LINE",
"462 489 LINE"
);
},
{
closed = 1;
nodes = (
"142 365 OFFCURVE",
"199 427 OFFCURVE",
"312 427 CURVE SMOOTH",
"340 427 OFFCURVE",
"359 425 OFFCURVE",
"385 422 CURVE",
"385 79 LINE",
"362 72 OFFCURVE",
"338 69 OFFCURVE",
"314 69 CURVE SMOOTH",
"190 69 OFFCURVE",
"142 119 OFFCURVE",
"142 248 CURVE SMOOTH"
);
}
);
};
hints = (
{
horizontal = 1;
place = "{-4, 75}";
type = Stem;
},
{
horizontal = 1;
place = "{209, 78}";
type = Stem;
},
{
horizontal = 1;
place = "{420, 81}";
type = Stem;
},
{
place = "{63, 82}";
type = Stem;
},
{
place = "{368, 70}";
type = Stem;
}
);
layerId = "2510F216-D89B-43CC-ACD1-209C5F77631B";
paths = (
{
closed = 1;
nodes = (
"357 -4 OFFCURVE",
"400 7 OFFCURVE",
"422 17 CURVE",
"439 94 LINE",
"397 79 OFFCURVE",
"363 70 OFFCURVE",
"324 70 CURVE SMOOTH",
"203 70 OFFCURVE",
"140 118 OFFCURVE",
"140 242 CURVE SMOOTH",
"140 257 LINE SMOOTH",
"140 355 OFFCURVE",
"185 433 OFFCURVE",
"290 433 CURVE SMOOTH",
"350 433 OFFCURVE",
"387 409 OFFCURVE",
"387 357 CURVE SMOOTH",
"387 312 OFFCURVE",
"360 287 OFFCURVE",
"293 286 CURVE SMOOTH",
"120 284 LINE",
"120 218 LINE",
"295 220 LINE SMOOTH",
"411 222 OFFCURVE",
"469 270 OFFCURVE",
"469 361 CURVE SMOOTH",
"469 445 OFFCURVE",
"399 501 OFFCURVE",
"293 501 CURVE SMOOTH",
"129 501 OFFCURVE",
"58 372 OFFCURVE",
"58 248 CURVE SMOOTH",
"58 228 LINE SMOOTH",
"58 83 OFFCURVE",
"151 -4 OFFCURVE",
"299 -4 CURVE SMOOTH"
);
}
);
width = 510;
},
{
background = {
paths = (
{
closed = 1;
nodes = (
"807 208 LINE SMOOTH",
"982 208 OFFCURVE",
"1041 291 OFFCURVE",
"1041 373 CURVE SMOOTH",
"1041 462 OFFCURVE",
"967 518 OFFCURVE",
"867 518 CURVE SMOOTH",
"738 518 OFFCURVE",
"629 440 OFFCURVE",
"629 257 CURVE SMOOTH",
"629 66 OFFCURVE",
"738 -4 OFFCURVE",
"869 -4 CURVE SMOOTH",
"935 -4 OFFCURVE",
"968 10 OFFCURVE",
"988 36 CURVE SMOOTH",
"1012 66 LINE",
"1019 75 OFFCURVE",
"1025 84 OFFCURVE",
"1025 96 CURVE SMOOTH",
"1025 108 OFFCURVE",
"1016 122 OFFCURVE",
"995 122 CURVE SMOOTH",
"911 121 LINE SMOOTH",
"832 120 OFFCURVE",
"792 146 OFFCURVE",
"779 208 CURVE"
);
},
{
closed = 1;
nodes = (
"774 411 LINE",
"810 411 LINE SMOOTH",
"882 411 OFFCURVE",
"916 374 OFFCURVE",
"916 324 CURVE SMOOTH",
"916 304 LINE",
"774 304 LINE"
);
},
{
closed = 1;
nodes = (
"349 -4 OFFCURVE",
"392 7 OFFCURVE",
"414 17 CURVE",
"430 94 LINE",
"389 79 OFFCURVE",
"355 70 OFFCURVE",
"315 70 CURVE SMOOTH",
"195 70 OFFCURVE",
"132 118 OFFCURVE",
"132 242 CURVE SMOOTH",
"132 257 LINE SMOOTH",
"132 355 OFFCURVE",
"177 433 OFFCURVE",
"281 433 CURVE SMOOTH",
"342 433 OFFCURVE",
"379 409 OFFCURVE",
"379 357 CURVE SMOOTH",
"379 312 OFFCURVE",
"352 287 OFFCURVE",
"285 286 CURVE SMOOTH",
"112 284 LINE",
"112 218 LINE",
"286 220 LINE SMOOTH",
"402 222 OFFCURVE",
"460 270 OFFCURVE",
"460 361 CURVE SMOOTH",
"460 445 OFFCURVE",
"391 501 OFFCURVE",
"285 501 CURVE SMOOTH",
"121 501 OFFCURVE",
"50 373 OFFCURVE",
"50 248 CURVE SMOOTH",
"50 228 LINE SMOOTH",
"50 83 OFFCURVE",
"142 -4 OFFCURVE",
"291 -4 CURVE SMOOTH"
);
}
);
};
hints = (
{
horizontal = 1;
place = "{-4, 125}";
type = Stem;
},
{
horizontal = 1;
place = "{208, 96}";
type = Stem;
},
{
horizontal = 1;
place = "{411, 107}";
type = Stem;
},
{
place = "{41, 145}";
type = Stem;
},
{
place = "{328, 125}";
type = Stem;
}
);
layerId = "5839A0EB-CD27-4B31-AA48-098F33CA22E9";
paths = (
{
closed = 1;
nodes = (
"362 -4 OFFCURVE",
"409 4 OFFCURVE",
"452 22 CURVE",
"474 142 LINE",
"425 127 OFFCURVE",
"380 119 OFFCURVE",
"340 119 CURVE SMOOTH",
"238 119 OFFCURVE",
"196 156 OFFCURVE",
"196 243 CURVE SMOOTH",
"196 298 LINE SMOOTH",
"196 356 OFFCURVE",
"232 411 OFFCURVE",
"303 411 CURVE SMOOTH",
"349 411 OFFCURVE",
"380 392 OFFCURVE",
"380 354 CURVE SMOOTH",
"380 320 OFFCURVE",
"358 304 OFFCURVE",
"311 304 CURVE SMOOTH",
"181 304 LINE",
"186 208 LINE",
"335 208 LINE SMOOTH",
"444 208 OFFCURVE",
"511 267 OFFCURVE",
"511 356 CURVE SMOOTH",
"511 453 OFFCURVE",
"427 518 OFFCURVE",
"304 518 CURVE SMOOTH",
"146 518 OFFCURVE",
"50 409 OFFCURVE",
"50 253 CURVE SMOOTH",
"50 241 LINE SMOOTH",
"50 88 OFFCURVE",
"147 -4 OFFCURVE",
"315 -4 CURVE SMOOTH"
);
}
);
width = 552;
}
);
leftMetricsKey = o;
note = e;
unicode = 0065;
},
{
glyphname = f;
lastChange = "2019-02-07 22:25:43 +0000";
layers = (
{
background = {
paths = (
{
closed = 1;
nodes = (
"1007 661 LINE",
"977 671 OFFCURVE",
"938 675 OFFCURVE",
"905 675 CURVE SMOOTH",
"761 675 OFFCURVE",
"672 597 OFFCURVE",
"672 476 CURVE SMOOTH",
"672 0 LINE",
"749 0 LINE",
"749 474 LINE SMOOTH",
"749 563 OFFCURVE",
"810 604 OFFCURVE",
"911 604 CURVE SMOOTH",
"936 604 OFFCURVE",
"960 601 OFFCURVE",
"990 593 CURVE"
);
},
{
closed = 1;
nodes = (
"573 421 LINE",
"916 421 LINE",
"916 487 LINE",
"573 487 LINE"
);
},
{
closed = 1;
nodes = (
"357 170 OFFCURVE",
"400 181 OFFCURVE",
"422 193 CURVE",
"439 270 LINE",
"397 253 OFFCURVE",
"363 244 OFFCURVE",
"322 244 CURVE SMOOTH",
"197 244 OFFCURVE",
"142 302 OFFCURVE",
"142 421 CURVE SMOOTH",
"142 531 OFFCURVE",
"203 599 OFFCURVE",
"315 599 CURVE SMOOTH",
"363 599 OFFCURVE",
"397 591 OFFCURVE",
"439 576 CURVE",
"430 660 LINE",
"400 671 OFFCURVE",
"357 675 OFFCURVE",
"315 675 CURVE SMOOTH",
"153 675 OFFCURVE",
"58 566 OFFCURVE",
"58 422 CURVE SMOOTH",
"58 402 LINE SMOOTH",
"58 257 OFFCURVE",
"151 170 OFFCURVE",
"299 170 CURVE SMOOTH"
);
}
);
};
layerId = "2510F216-D89B-43CC-ACD1-209C5F77631B";
paths = (
{
closed = 1;
nodes = (
"435 710 LINE",
"405 721 OFFCURVE",
"361 727 OFFCURVE",
"326 727 CURVE SMOOTH",
"181 727 OFFCURVE",
"93 646 OFFCURVE",
"93 528 CURVE SMOOTH",
"93 0 LINE",
"170 0 LINE",
"170 517 LINE SMOOTH",
"170 616 OFFCURVE",
"231 653 OFFCURVE",
"317 653 CURVE SMOOTH",
"367 653 OFFCURVE",
"401 646 OFFCURVE",
"444 632 CURVE"
);
},
{
closed = 1;
nodes = (
"-7 434 LINE",
"337 434 LINE",
"337 500 LINE",
"-7 500 LINE"
);
}
);
width = 322;
},
{
background = {
paths = (
{
closed = 1;
nodes = (
"1037 659 LINE",
"1004 671 OFFCURVE",
"974 675 OFFCURVE",
"930 675 CURVE SMOOTH",
"775 675 OFFCURVE",
"664 597 OFFCURVE",
"664 462 CURVE SMOOTH",
"664 0 LINE",
"805 0 LINE",
"805 465 LINE SMOOTH",
"805 529 OFFCURVE",
"849 560 OFFCURVE",
"938 560 CURVE SMOOTH",
"965 560 OFFCURVE",
"993 556 OFFCURVE",
"1016 547 CURVE"
);
},
{
closed = 1;
nodes = (
"573 387 LINE",
"958 387 LINE",
"958 499 LINE",
"573 499 LINE"
);
},
{
closed = 1;
nodes = (
"358 152 OFFCURVE",
"405 161 OFFCURVE",
"447 180 CURVE",
"469 303 LINE",
"420 286 OFFCURVE",
"377 278 OFFCURVE",
"342 278 CURVE SMOOTH",
"249 278 OFFCURVE",
"208 319 OFFCURVE",
"208 408 CURVE SMOOTH",
"208 503 OFFCURVE",
"256 551 OFFCURVE",
"346 551 CURVE SMOOTH",
"382 551 OFFCURVE",
"425 543 OFFCURVE",
"467 526 CURVE",
"458 660 LINE",
"423 670 OFFCURVE",
"378 675 OFFCURVE",
"340 675 CURVE SMOOTH",
"164 675 OFFCURVE",
"54 573 OFFCURVE",
"54 410 CURVE SMOOTH",
"54 397 LINE SMOOTH",
"54 239 OFFCURVE",
"147 152 OFFCURVE",
"313 152 CURVE SMOOTH"
);
}
);
};
layerId = "5839A0EB-CD27-4B31-AA48-098F33CA22E9";
paths = (
{
closed = 1;
nodes = (
"458 716 LINE",
"423 726 OFFCURVE",
"378 730 OFFCURVE",
"351 730 CURVE SMOOTH",
"195 730 OFFCURVE",
"84 652 OFFCURVE",
"84 517 CURVE SMOOTH",
"84 0 LINE",
"225 0 LINE",
"225 520 LINE SMOOTH",
"225 584 OFFCURVE",
"269 615 OFFCURVE",
"350 615 CURVE SMOOTH",
"386 615 OFFCURVE",
"426 610 OFFCURVE",
"466 595 CURVE"
);
},
{
closed = 1;
nodes = (
"-7 402 LINE",
"378 402 LINE",
"378 514 LINE",
"-7 514 LINE"
);
}
);
width = 368;
}
);
unicode = 0066;
},
{
glyphname = g;
lastChange = "2019-02-07 21:08:51 +0000";
layers = (
{
hints = (
{
horizontal = 1;
place = "{-149, 78}";
type = Stem;
},
{
horizontal = 1;
place = "{42, 76}";
type = Stem;
},
{
horizontal = 1;
place = "{420, 77}";
type = Stem;
},
{
place = "{63, 81}";
type = Stem;
},
{
place = "{384, 76}";
type = Stem;
}
);
layerId = "2510F216-D89B-43CC-ACD1-209C5F77631B";
paths = (
{
closed = 1;
nodes = (
"325 497 LINE SMOOTH",
"157 497 OFFCURVE",
"63 425 OFFCURVE",
"63 274 CURVE SMOOTH",
"63 148 OFFCURVE",
"123 42 OFFCURVE",
"267 42 CURVE SMOOTH",
"323 42 OFFCURVE",
"342 51 OFFCURVE",
"353 62 CURVE SMOOTH",
"384 94 LINE",
"384 -71 LINE",
"139 -71 LINE SMOOTH",
"115 -71 OFFCURVE",
"97 -75 OFFCURVE",
"88 -93 CURVE SMOOTH",
"74 -119 LINE SMOOTH",
"65 -135 OFFCURVE",
"76 -149 OFFCURVE",
"165 -149 CURVE SMOOTH",
"215 -149 LINE SMOOTH",
"387 -149 OFFCURVE",
"460 -89 OFFCURVE",
"460 79 CURVE SMOOTH",
"460 487 LINE SMOOTH",
"460 491 OFFCURVE",
"455 497 OFFCURVE",
"450 497 CURVE SMOOTH"
);
},
{
closed = 1;
nodes = (
"146 420 LINE",
"384 420 LINE",
"384 118 LINE",
"319 118 LINE SMOOTH",
"184 118 OFFCURVE",
"144 175 OFFCURVE",
"144 293 CURVE SMOOTH"
);
}
);
width = 545;
},
{
hints = (
{
horizontal = 1;
place = "{-149, 126}";
type = Stem;
},
{
horizontal = 1;
place = "{38, 122}";
type = Stem;
},
{
horizontal = 1;
place = "{396, 118}";
type = Stem;
},
{
place = "{41, 148}";
type = Stem;
},
{
place = "{335, 141}";
type = Stem;
}
);
layerId = "5839A0EB-CD27-4B31-AA48-098F33CA22E9";
paths = (
{
closed = 1;
nodes = (
"300 514 LINE SMOOTH",
"147 514 OFFCURVE",
"41 431 OFFCURVE",
"41 270 CURVE SMOOTH",
"41 112 OFFCURVE",
"125 38 OFFCURVE",
"243 38 CURVE SMOOTH",
"277 38 OFFCURVE",
"299 45 OFFCURVE",
"316 62 CURVE SMOOTH",
"335 80 LINE",
"335 -23 LINE",
"115 -23 LINE SMOOTH",
"100 -23 OFFCURVE",
"85 -26 OFFCURVE",
"73 -46 CURVE SMOOTH",
"51 -82 LINE SMOOTH",
"33 -115 OFFCURVE",
"36 -149 OFFCURVE",
"154 -149 CURVE SMOOTH",
"209 -149 LINE SMOOTH",
"373 -149 OFFCURVE",
"476 -70 OFFCURVE",
"476 96 CURVE SMOOTH",
"476 477 LINE SMOOTH",
"476 498 OFFCURVE",
"458 514 OFFCURVE",
"440 514 CURVE SMOOTH"
);
},
{
closed = 1;
nodes = (
"191 396 LINE",
"335 396 LINE",
"335 160 LINE",
"300 160 LINE SMOOTH",
"229 160 OFFCURVE",
"190 192 OFFCURVE",
"190 286 CURVE SMOOTH"
);
}
);
width = 538;
}
);
note = g;
unicode = 0067;
},
{
color = 3;
glyphname = h;
lastChange = "2019-02-07 21:15:58 +0000";
layers = (
{
background = {
paths = (
{
closed = 1;
nodes = (
"94 671 LINE SMOOTH",
"89 671 OFFCURVE",
"84 665 OFFCURVE",
"84 661 CURVE SMOOTH",
"84 10 LINE SMOOTH",
"84 6 OFFCURVE",
"89 0 OFFCURVE",
"94 0 CURVE SMOOTH",
"150 0 LINE SMOOTH",
"155 0 OFFCURVE",
"161 6 OFFCURVE",
"161 10 CURVE SMOOTH",
"161 425 LINE",
"224 425 LINE SMOOTH",
"349 425 OFFCURVE",
"402 402 OFFCURVE",
"402 266 CURVE SMOOTH",
"402 10 LINE SMOOTH",
"402 6 OFFCURVE",
"407 0 OFFCURVE",
"412 0 CURVE SMOOTH",
"469 0 LINE SMOOTH",
"474 0 OFFCURVE",
"478 6 OFFCURVE",
"478 10 CURVE SMOOTH",
"478 291 LINE SMOOTH",
"478 446 OFFCURVE",
"389 501 OFFCURVE",
"277 501 CURVE SMOOTH",
"219 501 OFFCURVE",
"195 488 OFFCURVE",
"175 465 CURVE SMOOTH",
"161 447 LINE",
"161 660 LINE SMOOTH",
"161 665 OFFCURVE",
"155 671 OFFCURVE",
"150 671 CURVE SMOOTH"
);
}
);
};
hints = (
{
horizontal = 1;
place = "{0, 21}";
target = up;
type = BottomGhost;
},
{
horizontal = 1;
place = "{425, 76}";
type = Stem;
},
{
horizontal = 1;
place = "{671, -20}";
target = down;
type = TopGhost;
},
{
place = "{84, 77}";
type = Stem;
},
{
place = "{402, 76}";
type = Stem;
}
);
layerId = "2510F216-D89B-43CC-ACD1-209C5F77631B";
paths = (
{
closed = 1;
nodes = (
"84 720 LINE",
"84 0 LINE",
"161 0 LINE",
"161 418 LINE",
"181 425 OFFCURVE",
"207 428 OFFCURVE",
"232 428 CURVE SMOOTH",
"351 428 OFFCURVE",
"400 384 OFFCURVE",
"400 266 CURVE SMOOTH",
"400 0 LINE",
"476 0 LINE",
"476 291 LINE SMOOTH",
"476 424 OFFCURVE",
"399 501 OFFCURVE",
"267 501 CURVE SMOOTH",
"227 501 OFFCURVE",
"206 493 OFFCURVE",
"181 469 CURVE SMOOTH",
"134 421 LINE",
"161 435 LINE",
"161 720 LINE"
);
}
);
width = 560;
},
{
background = {
paths = (
{
closed = 1;
nodes = (
"99 671 LINE SMOOTH",
"80 671 OFFCURVE",
"62 654 OFFCURVE",
"62 633 CURVE SMOOTH",
"62 37 LINE SMOOTH",
"62 17 OFFCURVE",
"80 0 OFFCURVE",
"99 0 CURVE SMOOTH",
"166 0 LINE SMOOTH",
"185 0 OFFCURVE",
"203 17 OFFCURVE",
"203 37 CURVE SMOOTH",
"203 397 LINE",
"244 397 LINE SMOOTH",
"315 397 OFFCURVE",
"353 370 OFFCURVE",
"353 286 CURVE SMOOTH",
"353 37 LINE SMOOTH",
"353 17 OFFCURVE",
"372 0 OFFCURVE",
"391 0 CURVE SMOOTH",
"458 0 LINE SMOOTH",
"476 0 OFFCURVE",
"494 17 OFFCURVE",
"494 37 CURVE SMOOTH",
"494 315 LINE SMOOTH",
"494 464 OFFCURVE",
"412 518 OFFCURVE",
"302 518 CURVE SMOOTH",
"261 518 OFFCURVE",
"240 512 OFFCURVE",
"221 492 CURVE SMOOTH",
"203 474 LINE",
"203 634 LINE SMOOTH",
"203 654 OFFCURVE",
"185 671 OFFCURVE",
"166 671 CURVE SMOOTH"
);
}
);
};
hints = (
{
horizontal = 1;
place = "{0, 21}";
target = up;
type = BottomGhost;
},
{
horizontal = 1;
place = "{397, 122}";
type = Stem;
},
{
horizontal = 1;
place = "{671, -20}";
target = down;
type = TopGhost;
},
{
place = "{62, 141}";
type = Stem;
},
{
place = "{353, 141}";
type = Stem;
}
);
layerId = "5839A0EB-CD27-4B31-AA48-098F33CA22E9";
paths = (
{
closed = 1;
nodes = (
"62 720 LINE",
"62 0 LINE",
"203 0 LINE",
"203 392 LINE",
"219 396 OFFCURVE",
"230 397 OFFCURVE",
"248 397 CURVE SMOOTH",
"325 397 OFFCURVE",
"367 365 OFFCURVE",
"367 281 CURVE SMOOTH",
"367 0 LINE",
"507 0 LINE",
"507 299 LINE SMOOTH",
"507 445 OFFCURVE",
"430 518 OFFCURVE",
"308 518 CURVE SMOOTH",
"273 518 OFFCURVE",
"248 509 OFFCURVE",
"226 488 CURVE SMOOTH",
"173 439 LINE",
"203 427 LINE",
"203 720 LINE"
);
}
);
width = 570;
}
);
leftMetricsKey = n;
note = h;
rightMetricsKey = n;
unicode = 0068;
},
{
glyphname = i;
lastChange = "2019-02-07 21:08:51 +0000";
layers = (
{
hints = (
{
horizontal = 1;
place = "{0, 21}";
target = up;
type = BottomGhost;
},
{
horizontal = 1;
place = "{497, -20}";
target = down;
type = TopGhost;
},
{
place = "{84, 77}";
type = Stem;
}
);
layerId = "2510F216-D89B-43CC-ACD1-209C5F77631B";
paths = (
{
closed = 1;
nodes = (
"60 633 LINE SMOOTH",
"57 630 OFFCURVE",
"57 623 OFFCURVE",
"60 619 CURVE SMOOTH",
"114 565 LINE SMOOTH",
"118 562 OFFCURVE",
"125 562 OFFCURVE",
"128 565 CURVE SMOOTH",
"183 619 LINE",
"185 623 OFFCURVE",
"186 630 OFFCURVE",
"183 633 CURVE SMOOTH",
"128 688 LINE SMOOTH",
"125 691 OFFCURVE",
"118 690 OFFCURVE",
"114 688 CURVE"
);
},
{
closed = 1;
nodes = (
"94 497 LINE SMOOTH",
"89 497 OFFCURVE",
"84 491 OFFCURVE",
"84 487 CURVE SMOOTH",
"84 10 LINE SMOOTH",
"84 6 OFFCURVE",
"89 0 OFFCURVE",
"94 0 CURVE SMOOTH",
"150 0 LINE SMOOTH",
"155 0 OFFCURVE",
"161 6 OFFCURVE",
"161 10 CURVE SMOOTH",
"161 486 LINE SMOOTH",
"161 491 OFFCURVE",
"155 497 OFFCURVE",
"150 497 CURVE SMOOTH"
);
}
);
width = 244;
},
{
hints = (
{
horizontal = 1;
place = "{0, 21}";
target = up;
type = BottomGhost;
},
{
horizontal = 1;
place = "{514, -20}";
target = down;
type = TopGhost;
},
{
place = "{62, 141}";
type = Stem;
}
);
layerId = "5839A0EB-CD27-4B31-AA48-098F33CA22E9";
paths = (
{
closed = 1;
nodes = (
"60 664 LINE SMOOTH",
"46 650 OFFCURVE",
"46 625 OFFCURVE",
"60 611 CURVE SMOOTH",
"109 562 LINE SMOOTH",
"123 548 OFFCURVE",
"148 547 OFFCURVE",
"162 562 CURVE SMOOTH",
"211 611 LINE SMOOTH",
"226 625 OFFCURVE",
"225 650 OFFCURVE",
"211 664 CURVE SMOOTH",
"162 713 LINE SMOOTH",
"149 727 OFFCURVE",
"124 728 OFFCURVE",
"109 713 CURVE SMOOTH"
);
},
{
closed = 1;
nodes = (
"99 514 LINE SMOOTH",
"80 514 OFFCURVE",
"62 498 OFFCURVE",
"62 477 CURVE SMOOTH",
"62 37 LINE SMOOTH",
"62 17 OFFCURVE",
"80 0 OFFCURVE",
"99 0 CURVE SMOOTH",
"166 0 LINE SMOOTH",
"185 0 OFFCURVE",
"203 17 OFFCURVE",
"203 37 CURVE SMOOTH",
"203 478 LINE SMOOTH",
"203 498 OFFCURVE",
"185 514 OFFCURVE",
"166 514 CURVE SMOOTH"
);
}
);
width = 265;
}
);
note = i;
unicode = 0069;
},
{
color = 3;
glyphname = k;
lastChange = "2019-02-07 21:29:16 +0000";
layers = (
{
background = {
paths = (
{
closed = 1;
nodes = (
"161 251 LINE",
"387 17 LINE SMOOTH",
"397 7 OFFCURVE",
"405 0 OFFCURVE",
"420 0 CURVE SMOOTH",
"465 0 LINE SMOOTH",
"478 0 OFFCURVE",
"483 7 OFFCURVE",
"483 15 CURVE SMOOTH",
"483 21 OFFCURVE",
"479 26 OFFCURVE",
"474 32 CURVE",
"247 273 LINE",
"452 475 LINE SMOOTH",
"454 477 OFFCURVE",
"457 483 OFFCURVE",
"457 485 CURVE SMOOTH",
"457 494 OFFCURVE",
"452 497 OFFCURVE",
"444 497 CURVE SMOOTH",
"387 497 LINE SMOOTH",
"375 497 OFFCURVE",
"368 489 OFFCURVE",
"362 483 CURVE",
"161 285 LINE"
);
},
{
closed = 1;
nodes = (
"84 671 LINE",
"84 0 LINE",
"161 0 LINE",
"161 671 LINE"
);
}
);
};
hints = (
{
horizontal = 1;
place = "{0, 21}";
target = up;
type = BottomGhost;
},
{
horizontal = 1;
place = "{497, -20}";
target = down;
type = TopGhost;
},
{
horizontal = 1;
place = "{671, -20}";
target = down;
type = TopGhost;
},
{
place = "{84, 77}";
type = Stem;
}
);
layerId = "2510F216-D89B-43CC-ACD1-209C5F77631B";
paths = (
{
closed = 1;
nodes = (
"459 -6 OFFCURVE",
"483 -2 OFFCURVE",
"502 6 CURVE",
"514 78 LINE",
"495 70 OFFCURVE",
"470 66 OFFCURVE",
"450 66 CURVE SMOOTH",
"401 68 OFFCURVE",
"368 89 OFFCURVE",
"326 146 CURVE SMOOTH",
"209 297 LINE",
"211 238 LINE",
"474 497 LINE",
"375 497 LINE",
"149 273 LINE",
"148 248 LINE",
"288 74 LINE SMOOTH",
"330 19 OFFCURVE",
"374 -4 OFFCURVE",
"435 -6 CURVE SMOOTH"
);
},
{
closed = 1;
nodes = (
"161 0 LINE",
"161 720 LINE",
"84 720 LINE",
"84 0 LINE"
);
}
);
width = 516;
},
{
background = {
paths = (
{
closed = 1;
nodes = (
"126 671 LINE",
"126 0 LINE",
"203 0 LINE",
"203 671 LINE"
);
},
{
closed = 1;
nodes = (
"537 70 OFFCURVE",
"512 66 OFFCURVE",
"492 66 CURVE SMOOTH",
"443 68 OFFCURVE",
"411 90 OFFCURVE",
"368 146 CURVE SMOOTH",
"251 297 LINE",
"253 238 LINE",
"517 497 LINE",
"417 497 LINE",
"191 273 LINE",
"191 249 LINE",
"190 248 LINE",
"330 74 LINE SMOOTH",
"373 20 OFFCURVE",
"416 -4 OFFCURVE",
"477 -6 CURVE SMOOTH",
"502 -6 OFFCURVE",
"525 -2 OFFCURVE",
"544 6 CURVE",
"556 78 LINE"
);
}
);
};
hints = (
{
horizontal = 1;
place = "{0, 21}";
target = up;
type = BottomGhost;
},
{
horizontal = 1;
place = "{514, -20}";
target = down;
type = TopGhost;
},
{
horizontal = 1;
place = "{671, -20}";
target = down;
type = TopGhost;
},
{
place = "{62, 141}";
type = Stem;
}
);
layerId = "5839A0EB-CD27-4B31-AA48-098F33CA22E9";
paths = (
{
closed = 1;
nodes = (
"504 -7 OFFCURVE",
"540 -2 OFFCURVE",
"566 9 CURVE",
"585 123 LINE",
"568 118 OFFCURVE",
"540 114 OFFCURVE",
"522 114 CURVE SMOOTH",
"478 116 OFFCURVE",
"446 132 OFFCURVE",
"406 185 CURVE SMOOTH",
"325 291 LINE",
"310 232 LINE",
"555 497 LINE",
"384 497 LINE",
"179 277 LINE",
"175 246 LINE",
"313 74 LINE SMOOTH",
"357 18 OFFCURVE",
"408 -4 OFFCURVE",
"478 -6 CURVE SMOOTH"
);
},
{
closed = 1;
nodes = (
"203 0 LINE",
"203 720 LINE",
"62 719 LINE",
"62 0 LINE"
);
}
);
width = 557;
}
);
note = k;
unicode = 006B;
},
{
color = 3;
glyphname = l;
lastChange = "2019-02-07 21:29:32 +0000";
layers = (
{
hints = (
{
horizontal = 1;
place = "{0, 21}";
target = up;
type = BottomGhost;
},
{
horizontal = 1;
place = "{671, -20}";
target = down;
type = TopGhost;
},
{
place = "{84, 77}";
type = Stem;
}
);
layerId = "2510F216-D89B-43CC-ACD1-209C5F77631B";
paths = (
{
closed = 1;
nodes = (
"84 720 LINE",
"84 0 LINE",
"161 0 LINE",
"161 720 LINE"
);
}
);
width = 244;
},
{
hints = (
{
horizontal = 1;
place = "{0, 21}";
target = up;
type = BottomGhost;
},
{
horizontal = 1;
place = "{671, -20}";
target = down;
type = TopGhost;
},
{
place = "{62, 141}";
type = Stem;
}
);
layerId = "5839A0EB-CD27-4B31-AA48-098F33CA22E9";
paths = (
{
closed = 1;
nodes = (
"62 719 LINE",
"62 0 LINE",
"203 0 LINE",
"203 720 LINE"
);
}
);
width = 265;
}
);
note = l;
unicode = 006C;
},
{
glyphname = m;
lastChange = "2019-02-07 21:08:51 +0000";
layers = (
{
hints = (
{
horizontal = 1;
place = "{0, 21}";
target = up;
type = BottomGhost;
},
{
horizontal = 1;
place = "{497, -20}";
target = down;
type = TopGhost;
},
{
place = "{84, 77}";
type = Stem;
},
{
place = "{389, 77}";
type = Stem;
},
{
place = "{687, 76}";
type = Stem;
},
{
horizontal = 1;
place = "{425, 76}";
type = Stem;
}
);
layerId = "2510F216-D89B-43CC-ACD1-209C5F77631B";
paths = (
{
closed = 1;
nodes = (
"94 497 LINE SMOOTH",
"89 497 OFFCURVE",
"84 491 OFFCURVE",
"84 487 CURVE SMOOTH",
"84 10 LINE SMOOTH",
"84 6 OFFCURVE",
"89 0 OFFCURVE",
"94 0 CURVE SMOOTH",
"150 0 LINE SMOOTH",
"155 0 OFFCURVE",
"161 6 OFFCURVE",
"161 10 CURVE SMOOTH",
"161 425 LINE",
"212 425 LINE SMOOTH",
"340 425 OFFCURVE",
"389 402 OFFCURVE",
"389 266 CURVE SMOOTH",
"389 10 LINE SMOOTH",
"389 6 OFFCURVE",
"395 0 OFFCURVE",
"400 0 CURVE SMOOTH",
"456 0 LINE SMOOTH",
"461 0 OFFCURVE",
"466 6 OFFCURVE",
"466 10 CURVE SMOOTH",
"466 291 LINE SMOOTH",
"466 345 OFFCURVE",
"455 387 OFFCURVE",
"437 418 CURVE",
"458 423 OFFCURVE",
"478 425 OFFCURVE",
"502 425 CURVE SMOOTH",
"634 425 OFFCURVE",
"687 402 OFFCURVE",
"687 266 CURVE SMOOTH",
"687 10 LINE SMOOTH",
"687 6 OFFCURVE",
"692 0 OFFCURVE",
"697 0 CURVE SMOOTH",
"753 0 LINE SMOOTH",
"758 0 OFFCURVE",
"763 6 OFFCURVE",
"763 10 CURVE SMOOTH",
"763 291 LINE SMOOTH",
"763 446 OFFCURVE",
"680 501 OFFCURVE",
"547 501 CURVE SMOOTH",
"478 501 OFFCURVE",
"456 498 OFFCURVE",
"409 454 CURVE",
"373 487 OFFCURVE",
"325 501 OFFCURVE",
"269 501 CURVE SMOOTH",
"219 501 OFFCURVE",
"191 488 OFFCURVE",
"172 465 CURVE SMOOTH",
"157 448 LINE",
"157 486 LINE SMOOTH",
"157 491 OFFCURVE",
"152 497 OFFCURVE",
"147 497 CURVE SMOOTH"
);
}
);
width = 847;
},
{
hints = (
{
horizontal = 1;
place = "{0, 21}";
target = up;
type = BottomGhost;
},
{
horizontal = 1;
place = "{514, -20}";
target = down;
type = TopGhost;
},
{
place = "{62, 141}";
type = Stem;
},
{
place = "{343, 141}";
type = Stem;
},
{
place = "{622, 141}";
type = Stem;
},
{
horizontal = 1;
place = "{397, 122}";
type = Stem;
}
);
layerId = "5839A0EB-CD27-4B31-AA48-098F33CA22E9";
paths = (
{
closed = 1;
nodes = (
"99 514 LINE SMOOTH",
"80 514 OFFCURVE",
"62 498 OFFCURVE",
"62 477 CURVE SMOOTH",
"62 37 LINE SMOOTH",
"62 17 OFFCURVE",
"80 0 OFFCURVE",
"99 0 CURVE SMOOTH",
"166 0 LINE SMOOTH",
"185 0 OFFCURVE",
"203 17 OFFCURVE",
"203 37 CURVE SMOOTH",
"203 397 LINE",
"233 397 LINE SMOOTH",
"304 397 OFFCURVE",
"343 370 OFFCURVE",
"343 286 CURVE SMOOTH",
"343 37 LINE SMOOTH",
"343 17 OFFCURVE",
"361 0 OFFCURVE",
"380 0 CURVE SMOOTH",
"446 0 LINE SMOOTH",
"465 0 OFFCURVE",
"483 17 OFFCURVE",
"483 37 CURVE SMOOTH",
"483 315 LINE SMOOTH",
"483 346 OFFCURVE",
"480 373 OFFCURVE",
"474 396 CURVE",
"488 397 OFFCURVE",
"502 397 OFFCURVE",
"512 397 CURVE SMOOTH",
"583 397 OFFCURVE",
"622 370 OFFCURVE",
"622 286 CURVE SMOOTH",
"622 37 LINE SMOOTH",
"622 17 OFFCURVE",
"640 0 OFFCURVE",
"659 0 CURVE SMOOTH",
"725 0 LINE SMOOTH",
"744 0 OFFCURVE",
"762 17 OFFCURVE",
"762 37 CURVE SMOOTH",
"762 315 LINE SMOOTH",
"762 464 OFFCURVE",
"681 518 OFFCURVE",
"571 518 CURVE SMOOTH",
"513 518 OFFCURVE",
"478 508 OFFCURVE",
"433 468 CURVE",
"399 503 OFFCURVE",
"349 518 OFFCURVE",
"292 518 CURVE SMOOTH",
"261 518 OFFCURVE",
"239 512 OFFCURVE",
"220 492 CURVE SMOOTH",
"199 469 LINE",
"199 478 LINE SMOOTH",
"199 498 OFFCURVE",
"180 514 OFFCURVE",
"161 514 CURVE SMOOTH"
);
}
);
width = 825;
}
);
note = m;
unicode = 006D;
},
{
color = 3;
glyphname = n;
lastChange = "2019-02-07 21:08:51 +0000";
layers = (
{
background = {
paths = (
{
closed = 1;
nodes = (
"590 501 LINE SMOOTH",
"585 501 OFFCURVE",
"580 495 OFFCURVE",
"580 491 CURVE SMOOTH",
"580 14 LINE SMOOTH",
"580 10 OFFCURVE",
"585 4 OFFCURVE",
"590 4 CURVE SMOOTH",
"647 4 LINE SMOOTH",
"651 4 OFFCURVE",
"657 10 OFFCURVE",
"657 14 CURVE SMOOTH",
"657 429 LINE",
"721 429 LINE SMOOTH",
"846 429 OFFCURVE",
"899 406 OFFCURVE",
"899 270 CURVE SMOOTH",
"899 14 LINE SMOOTH",
"899 10 OFFCURVE",
"904 4 OFFCURVE",
"909 4 CURVE SMOOTH",
"965 4 LINE SMOOTH",
"970 4 OFFCURVE",
"975 10 OFFCURVE",
"975 14 CURVE SMOOTH",
"975 296 LINE SMOOTH",
"975 450 OFFCURVE",
"886 505 OFFCURVE",
"774 505 CURVE SMOOTH",
"715 505 OFFCURVE",
"688 492 OFFCURVE",
"669 469 CURVE SMOOTH",
"654 452 LINE",
"654 490 LINE SMOOTH",
"654 495 OFFCURVE",
"649 501 OFFCURVE",
"644 501 CURVE SMOOTH"
);
},
{
closed = 1;
nodes = (
"55 514 LINE",
"55 0 LINE",
"196 0 LINE",
"196 392 LINE",
"212 396 OFFCURVE",
"224 397 OFFCURVE",
"241 397 CURVE SMOOTH",
"318 397 OFFCURVE",
"360 365 OFFCURVE",
"360 281 CURVE SMOOTH",
"360 0 LINE",
"501 0 LINE",
"501 299 LINE SMOOTH",
"501 445 OFFCURVE",
"423 518 OFFCURVE",
"301 518 CURVE SMOOTH",
"264 518 OFFCURVE",
"239 509 OFFCURVE",
"217 488 CURVE SMOOTH",
"191 464 LINE",
"191 514 LINE"
);
}
);
};
hints = (
{
horizontal = 1;
place = "{0, 21}";
target = up;
type = BottomGhost;
},
{
horizontal = 1;
place = "{497, -20}";
target = down;
type = TopGhost;
},
{
place = "{84, 77}";
type = Stem;
},
{
place = "{402, 76}";
type = Stem;
},
{
horizontal = 1;
place = "{425, 76}";
type = Stem;
}
);
layerId = "2510F216-D89B-43CC-ACD1-209C5F77631B";
paths = (
{
closed = 1;
nodes = (
"84 497 LINE",
"84 0 LINE",
"161 0 LINE",
"161 418 LINE",
"181 424 OFFCURVE",
"207 428 OFFCURVE",
"232 428 CURVE SMOOTH",
"351 428 OFFCURVE",
"400 384 OFFCURVE",
"400 266 CURVE SMOOTH",
"400 0 LINE",
"476 0 LINE",
"476 291 LINE SMOOTH",
"476 424 OFFCURVE",
"399 501 OFFCURVE",
"267 501 CURVE SMOOTH",
"224 501 OFFCURVE",
"204 493 OFFCURVE",
"179 469 CURVE SMOOTH",
"158 448 LINE",
"158 497 LINE"
);
}
);
width = 560;
},
{
background = {
paths = (
{
closed = 1;
nodes = (
"105 2 OFFCURVE",
"171 -4 OFFCURVE",
"214 -4 CURVE SMOOTH",
"410 -4 OFFCURVE",
"524 95 OFFCURVE",
"524 264 CURVE SMOOTH",
"524 276 LINE SMOOTH",
"524 423 OFFCURVE",
"439 518 OFFCURVE",
"307 518 CURVE SMOOTH",
"271 518 OFFCURVE",
"245 509 OFFCURVE",
"224 488 CURVE SMOOTH",
"198 464 LINE",
"198 514 LINE",
"62 514 LINE",
"62 11 LINE"
);
},
{
closed = 1;
nodes = (
"372 166 OFFCURVE",
"329 118 OFFCURVE",
"243 118 CURVE SMOOTH",
"227 118 OFFCURVE",
"217 119 OFFCURVE",
"203 122 CURVE",
"203 392 LINE",
"222 396 OFFCURVE",
"233 397 OFFCURVE",
"248 397 CURVE SMOOTH",
"330 397 OFFCURVE",
"372 352 OFFCURVE",
"372 262 CURVE SMOOTH"
);
}
);
};
hints = (
{
horizontal = 1;
place = "{0, 21}";
target = up;
type = BottomGhost;
},
{
horizontal = 1;
place = "{514, -20}";
target = down;
type = TopGhost;
},
{
place = "{62, 141}";
type = Stem;
},
{
place = "{353, 141}";
type = Stem;
},
{
horizontal = 1;
place = "{397, 122}";
type = Stem;
}
);
layerId = "5839A0EB-CD27-4B31-AA48-098F33CA22E9";
paths = (
{
closed = 1;
nodes = (
"62 514 LINE",
"62 0 LINE",
"203 0 LINE",
"203 392 LINE",
"219 395 OFFCURVE",
"230 397 OFFCURVE",
"248 397 CURVE SMOOTH",
"325 397 OFFCURVE",
"367 365 OFFCURVE",
"367 281 CURVE SMOOTH",
"367 0 LINE",
"507 0 LINE",
"507 299 LINE SMOOTH",
"507 445 OFFCURVE",
"430 518 OFFCURVE",
"308 518 CURVE SMOOTH",
"271 518 OFFCURVE",
"245 509 OFFCURVE",
"224 488 CURVE SMOOTH",
"198 464 LINE",
"198 514 LINE"
);
}
);
width = 570;
}
);
note = n;
unicode = 006E;
},
{
color = 3;
glyphname = o;
lastChange = "2019-02-07 21:29:41 +0000";
layers = (
{
background = {
paths = (
{
closed = 1;
nodes = (
"422 496 OFFCURVE",
"370 501 OFFCURVE",
"331 501 CURVE SMOOTH",
"161 501 OFFCURVE",
"59 406 OFFCURVE",
"59 248 CURVE SMOOTH",
"59 228 LINE SMOOTH",
"59 85 OFFCURVE",
"143 -4 OFFCURVE",
"279 -4 CURVE SMOOTH",
"322 -4 OFFCURVE",
"343 3 OFFCURVE",
"368 28 CURVE SMOOTH",
"388 49 LINE",
"388 0 LINE",
"463 0 LINE",
"463 489 LINE"
);
},
{
closed = 1;
nodes = (
"142 365 OFFCURVE",
"200 427 OFFCURVE",
"313 427 CURVE SMOOTH",
"341 427 OFFCURVE",
"360 425 OFFCURVE",
"386 422 CURVE",
"386 79 LINE",
"363 72 OFFCURVE",
"339 69 OFFCURVE",
"315 69 CURVE SMOOTH",
"190 69 OFFCURVE",
"142 119 OFFCURVE",
"142 248 CURVE SMOOTH"
);
}
);
};
hints = (
{
horizontal = 1;
place = "{-4, 76}";
type = Stem;
},
{
horizontal = 1;
place = "{425, 76}";
type = Stem;
},
{
place = "{63, 81}";
type = Stem;
},
{
place = "{416, 81}";
type = Stem;
}
);
layerId = "2510F216-D89B-43CC-ACD1-209C5F77631B";
paths = (
{
closed = 1;
nodes = (
"153 501 OFFCURVE",
"58 393 OFFCURVE",
"58 248 CURVE SMOOTH",
"58 228 LINE SMOOTH",
"58 86 OFFCURVE",
"153 -4 OFFCURVE",
"281 -4 CURVE SMOOTH",
"421 -4 OFFCURVE",
"512 104 OFFCURVE",
"512 248 CURVE SMOOTH",
"512 268 LINE SMOOTH",
"512 411 OFFCURVE",
"421 501 OFFCURVE",
"296 501 CURVE SMOOTH"
);
},
{
closed = 1;
nodes = (
"198 70 OFFCURVE",
"142 128 OFFCURVE",
"142 247 CURVE SMOOTH",
"142 362 OFFCURVE",
"203 426 OFFCURVE",
"291 426 CURVE SMOOTH",
"377 426 OFFCURVE",
"430 368 OFFCURVE",
"430 250 CURVE SMOOTH",
"430 136 OFFCURVE",
"372 70 OFFCURVE",
"285 70 CURVE SMOOTH"
);
}
);
width = 570;
},
{
background = {
paths = (
{
closed = 1;
nodes = (
"167 501 OFFCURVE",
"72 392 OFFCURVE",
"72 248 CURVE SMOOTH",
"72 228 LINE SMOOTH",
"72 86 OFFCURVE",
"167 -4 OFFCURVE",
"295 -4 CURVE SMOOTH",
"435 -4 OFFCURVE",
"526 104 OFFCURVE",
"526 248 CURVE SMOOTH",
"526 268 LINE SMOOTH",
"526 411 OFFCURVE",
"435 501 OFFCURVE",
"310 501 CURVE SMOOTH"
);
},
{
closed = 1;
nodes = (
"212 70 OFFCURVE",
"156 128 OFFCURVE",
"156 247 CURVE SMOOTH",
"156 362 OFFCURVE",
"217 426 OFFCURVE",
"305 426 CURVE SMOOTH",
"391 426 OFFCURVE",
"444 368 OFFCURVE",
"444 250 CURVE SMOOTH",
"444 136 OFFCURVE",
"386 70 OFFCURVE",
"299 70 CURVE SMOOTH"
);
}
);
};
hints = (
{
horizontal = 1;
place = "{-4, 122}";
type = Stem;
},
{
horizontal = 1;
place = "{397, 122}";
type = Stem;
},
{
place = "{41, 149}";
type = Stem;
},
{
place = "{352, 148}";
type = Stem;
}
);
layerId = "5839A0EB-CD27-4B31-AA48-098F33CA22E9";
paths = (
{
closed = 1;
nodes = (
"154 518 OFFCURVE",
"50 406 OFFCURVE",
"50 257 CURVE SMOOTH",
"50 237 LINE SMOOTH",
"50 89 OFFCURVE",
"154 -4 OFFCURVE",
"295 -4 CURVE SMOOTH",
"449 -4 OFFCURVE",
"550 108 OFFCURVE",
"550 257 CURVE SMOOTH",
"550 278 LINE SMOOTH",
"550 425 OFFCURVE",
"449 518 OFFCURVE",
"311 518 CURVE SMOOTH"
);
},
{
closed = 1;
nodes = (
"240 119 OFFCURVE",
"203 164 OFFCURVE",
"203 256 CURVE SMOOTH",
"203 344 OFFCURVE",
"244 395 OFFCURVE",
"305 395 CURVE SMOOTH",
"362 395 OFFCURVE",
"398 349 OFFCURVE",
"398 258 CURVE SMOOTH",
"398 170 OFFCURVE",
"359 119 OFFCURVE",
"300 119 CURVE SMOOTH"
);
}
);
width = 600;
}
);
note = o;
rightMetricsKey = "=|";
unicode = 006F;
},
{
glyphname = p;
lastChange = "2019-02-07 21:08:51 +0000";
layers = (
{
background = {
paths = (
{
closed = 1;
nodes = (
"150 -145 LINE SMOOTH",
"155 -145 OFFCURVE",
"161 -139 OFFCURVE",
"161 -135 CURVE SMOOTH",
"161 0 LINE",
"221 0 LINE SMOOTH",
"388 0 OFFCURVE",
"483 70 OFFCURVE",
"483 231 CURVE SMOOTH",
"483 261 LINE SMOOTH",
"483 394 OFFCURVE",
"423 501 OFFCURVE",
"279 501 CURVE SMOOTH",
"224 501 OFFCURVE",
"204 492 OFFCURVE",
"194 481 CURVE SMOOTH",
"158 445 LINE",
"157 449 LINE",
"157 486 LINE SMOOTH",
"157 491 OFFCURVE",
"152 497 OFFCURVE",
"147 497 CURVE SMOOTH",
"94 497 LINE SMOOTH",
"89 497 OFFCURVE",
"84 491 OFFCURVE",
"84 487 CURVE SMOOTH",
"84 -135 LINE SMOOTH",
"84 -139 OFFCURVE",
"89 -145 OFFCURVE",
"94 -145 CURVE SMOOTH"
);
},
{
closed = 1;
nodes = (
"161 425 LINE",
"227 425 LINE SMOOTH",
"362 425 OFFCURVE",
"401 377 OFFCURVE",
"401 226 CURVE SMOOTH",
"400 76 LINE",
"161 76 LINE"
);
}
);
};
hints = (
{
horizontal = 1;
place = "{-145, 21}";
target = up;
type = BottomGhost;
},
{
horizontal = 1;
place = "{0, 76}";
type = Stem;
},
{
horizontal = 1;
place = "{497, -20}";
target = down;
type = TopGhost;
},
{
place = "{84, 77}";
type = Stem;
},
{
place = "{401, 81}";
type = Stem;
},
{
horizontal = 1;
place = "{425, 76}";
type = Stem;
}
);
layerId = "2510F216-D89B-43CC-ACD1-209C5F77631B";
paths = (
{
closed = 1;
nodes = (
"150 -145 LINE SMOOTH",
"155 -145 OFFCURVE",
"161 -139 OFFCURVE",
"161 -135 CURVE SMOOTH",
"161 0 LINE",
"221 0 LINE SMOOTH",
"388 0 OFFCURVE",
"483 70 OFFCURVE",
"483 231 CURVE SMOOTH",
"483 261 LINE SMOOTH",
"483 394 OFFCURVE",
"423 501 OFFCURVE",
"279 501 CURVE SMOOTH",
"224 501 OFFCURVE",
"204 492 OFFCURVE",
"194 481 CURVE SMOOTH",
"158 445 LINE",
"158 486 LINE SMOOTH",
"158 491 OFFCURVE",
"153 497 OFFCURVE",
"148 497 CURVE SMOOTH",
"94 497 LINE SMOOTH",
"89 497 OFFCURVE",
"84 491 OFFCURVE",
"84 487 CURVE SMOOTH",
"84 -135 LINE SMOOTH",
"84 -139 OFFCURVE",
"89 -145 OFFCURVE",
"94 -145 CURVE SMOOTH"
);
},
{
closed = 1;
nodes = (
"161 425 LINE",
"227 425 LINE SMOOTH",
"362 425 OFFCURVE",
"401 377 OFFCURVE",
"401 226 CURVE SMOOTH",
"400 76 LINE",
"161 76 LINE"
);
}
);
width = 546;
},
{
hints = (
{
horizontal = 1;
place = "{-145, 21}";
target = up;
type = BottomGhost;
},
{
horizontal = 1;
place = "{0, 122}";
type = Stem;
},
{
horizontal = 1;
place = "{514, -20}";
target = down;
type = TopGhost;
},
{
place = "{62, 141}";
type = Stem;
},
{
place = "{355, 149}";
type = Stem;
},
{
horizontal = 1;
place = "{397, 122}";
type = Stem;
}
);
layerId = "5839A0EB-CD27-4B31-AA48-098F33CA22E9";
paths = (
{
closed = 1;
nodes = (
"166 -145 LINE SMOOTH",
"185 -145 OFFCURVE",
"203 -128 OFFCURVE",
"203 -108 CURVE SMOOTH",
"203 0 LINE",
"245 0 LINE SMOOTH",
"398 0 OFFCURVE",
"504 80 OFFCURVE",
"504 252 CURVE SMOOTH",
"504 278 LINE SMOOTH",
"504 447 OFFCURVE",
"421 518 OFFCURVE",
"303 518 CURVE SMOOTH",
"262 518 OFFCURVE",
"242 512 OFFCURVE",
"224 494 CURVE SMOOTH",
"199 469 LINE",
"199 478 LINE SMOOTH",
"199 498 OFFCURVE",
"180 514 OFFCURVE",
"161 514 CURVE SMOOTH",
"99 514 LINE SMOOTH",
"80 514 OFFCURVE",
"62 498 OFFCURVE",
"62 477 CURVE SMOOTH",
"62 -108 LINE SMOOTH",
"62 -128 OFFCURVE",
"80 -145 OFFCURVE",
"99 -145 CURVE SMOOTH"
);
},
{
closed = 1;
nodes = (
"203 397 LINE",
"245 397 LINE SMOOTH",
"316 397 OFFCURVE",
"356 366 OFFCURVE",
"356 267 CURVE SMOOTH",
"354 122 LINE",
"203 122 LINE"
);
}
);
width = 546;
}
);
note = p;
unicode = 0070;
},
{
glyphname = q;
lastChange = "2019-02-07 21:08:51 +0000";
layers = (
{
hints = (
{
horizontal = 1;
place = "{-145, 21}";
target = up;
type = BottomGhost;
},
{
horizontal = 1;
place = "{-4, 76}";
type = Stem;
},
{
horizontal = 1;
place = "{420, 77}";
type = Stem;
},
{
place = "{63, 81}";
type = Stem;
},
{
place = "{382, 77}";
type = Stem;
}
);
layerId = "2510F216-D89B-43CC-ACD1-209C5F77631B";
paths = (
{
closed = 1;
nodes = (
"325 497 LINE SMOOTH",
"157 497 OFFCURVE",
"63 427 OFFCURVE",
"63 266 CURVE SMOOTH",
"63 236 LINE SMOOTH",
"63 103 OFFCURVE",
"123 -4 OFFCURVE",
"267 -4 CURVE SMOOTH",
"322 -4 OFFCURVE",
"341 5 OFFCURVE",
"352 16 CURVE SMOOTH",
"382 45 LINE",
"382 -135 LINE SMOOTH",
"382 -139 OFFCURVE",
"387 -145 OFFCURVE",
"392 -145 CURVE SMOOTH",
"449 -145 LINE SMOOTH",
"454 -145 OFFCURVE",
"459 -139 OFFCURVE",
"459 -135 CURVE SMOOTH",
"459 487 LINE SMOOTH",
"459 491 OFFCURVE",
"454 497 OFFCURVE",
"449 497 CURVE SMOOTH"
);
},
{
closed = 1;
nodes = (
"146 420 LINE",
"382 420 LINE",
"382 72 LINE",
"319 72 LINE SMOOTH",
"184 72 OFFCURVE",
"144 120 OFFCURVE",
"144 271 CURVE SMOOTH"
);
}
);
width = 541;
},
{
hints = (
{
horizontal = 1;
place = "{-145, 21}";
target = up;
type = BottomGhost;
},
{
horizontal = 1;
place = "{-4, 122}";
type = Stem;
},
{
horizontal = 1;
place = "{396, 118}";
type = Stem;
},
{
place = "{41, 149}";
type = Stem;
},
{
place = "{342, 141}";
type = Stem;
}
);
layerId = "5839A0EB-CD27-4B31-AA48-098F33CA22E9";
paths = (
{
closed = 1;
nodes = (
"300 514 LINE SMOOTH",
"147 514 OFFCURVE",
"41 434 OFFCURVE",
"41 262 CURVE SMOOTH",
"41 236 LINE SMOOTH",
"41 67 OFFCURVE",
"125 -4 OFFCURVE",
"243 -4 CURVE SMOOTH",
"281 -4 OFFCURVE",
"301 2 OFFCURVE",
"320 20 CURVE SMOOTH",
"342 42 LINE",
"342 -108 LINE SMOOTH",
"342 -128 OFFCURVE",
"360 -145 OFFCURVE",
"379 -145 CURVE SMOOTH",
"446 -145 LINE SMOOTH",
"464 -145 OFFCURVE",
"483 -128 OFFCURVE",
"483 -108 CURVE SMOOTH",
"483 477 LINE SMOOTH",
"483 498 OFFCURVE",
"464 514 OFFCURVE",
"446 514 CURVE SMOOTH"
);
},
{
closed = 1;
nodes = (
"191 396 LINE",
"342 396 LINE",
"342 118 LINE",
"300 118 LINE SMOOTH",
"229 118 OFFCURVE",
"190 148 OFFCURVE",
"190 247 CURVE SMOOTH"
);
}
);
width = 551;
}
);
note = q;
unicode = 0071;
},
{
glyphname = r;
lastChange = "2019-02-07 21:08:51 +0000";
layers = (
{
hints = (
{
horizontal = 1;
place = "{0, 21}";
target = up;
type = BottomGhost;
},
{
horizontal = 1;
place = "{497, -20}";
target = down;
type = TopGhost;
},
{
place = "{84, 77}";
type = Stem;
},
{
horizontal = 1;
place = "{419, 82}";
type = Stem;
}
);
layerId = "2510F216-D89B-43CC-ACD1-209C5F77631B";
paths = (
{
closed = 1;
nodes = (
"94 497 LINE SMOOTH",
"89 497 OFFCURVE",
"84 491 OFFCURVE",
"84 487 CURVE SMOOTH",
"84 10 LINE SMOOTH",
"84 6 OFFCURVE",
"89 0 OFFCURVE",
"94 0 CURVE SMOOTH",
"150 0 LINE SMOOTH",
"155 0 OFFCURVE",
"161 6 OFFCURVE",
"161 10 CURVE SMOOTH",
"161 419 LINE",
"290 419 LINE SMOOTH",
"319 419 OFFCURVE",
"325 421 OFFCURVE",
"334 436 CURVE",
"352 472 LINE",
"354 478 OFFCURVE",
"355 482 OFFCURVE",
"355 485 CURVE SMOOTH",
"355 496 OFFCURVE",
"346 501 OFFCURVE",
"334 501 CURVE SMOOTH",
"276 501 LINE SMOOTH",
"218 501 OFFCURVE",
"193 488 OFFCURVE",
"174 465 CURVE SMOOTH",
"158 446 LINE",
"158 486 LINE SMOOTH",
"158 491 OFFCURVE",
"153 497 OFFCURVE",
"148 497 CURVE SMOOTH"
);
}
);
width = 371;
},
{
hints = (
{
horizontal = 1;
place = "{0, 21}";
target = up;
type = BottomGhost;
},
{
horizontal = 1;
place = "{514, -20}";
target = down;
type = TopGhost;
},
{
place = "{62, 141}";
type = Stem;
},
{
horizontal = 1;
place = "{377, 142}";
type = Stem;
}
);
layerId = "5839A0EB-CD27-4B31-AA48-098F33CA22E9";
paths = (
{
closed = 1;
nodes = (
"99 514 LINE SMOOTH",
"80 514 OFFCURVE",
"62 498 OFFCURVE",
"62 477 CURVE SMOOTH",
"62 37 LINE SMOOTH",
"62 17 OFFCURVE",
"80 0 OFFCURVE",
"99 0 CURVE SMOOTH",
"166 0 LINE SMOOTH",
"185 0 OFFCURVE",
"203 17 OFFCURVE",
"203 37 CURVE SMOOTH",
"203 377 LINE",
"303 377 LINE SMOOTH",
"319 377 OFFCURVE",
"332 380 OFFCURVE",
"344 398 CURVE SMOOTH",
"383 462 LINE SMOOTH",
"389 471 OFFCURVE",
"392 483 OFFCURVE",
"392 492 CURVE SMOOTH",
"392 507 OFFCURVE",
"383 518 OFFCURVE",
"358 518 CURVE SMOOTH",
"293 518 LINE SMOOTH",
"263 518 OFFCURVE",
"243 512 OFFCURVE",
"224 492 CURVE SMOOTH",
"199 467 LINE",
"199 478 LINE SMOOTH",
"199 498 OFFCURVE",
"180 514 OFFCURVE",
"161 514 CURVE SMOOTH"
);
}
);
width = 382;
}
);
note = r;
unicode = 0072;
},
{
glyphname = s;
lastChange = "2019-02-07 21:08:51 +0000";
layers = (
{
hints = (
{
horizontal = 1;
place = "{-8, 74}";
type = Stem;
},
{
horizontal = 1;
place = "{427, 74}";
type = Stem;
},
{
place = "{50, 69}";
type = Stem;
},
{
place = "{314, 69}";
type = Stem;
}
);
layerId = "2510F216-D89B-43CC-ACD1-209C5F77631B";
paths = (
{
closed = 1;
nodes = (
"273 501 LINE SMOOTH",
"113 501 OFFCURVE",
"50 439 OFFCURVE",
"50 354 CURVE SMOOTH",
"50 301 OFFCURVE",
"77 255 OFFCURVE",
"157 228 CURVE SMOOTH",
"237 200 LINE SMOOTH",
"291 182 OFFCURVE",
"314 152 OFFCURVE",
"314 90 CURVE SMOOTH",
"314 65 LINE",
"123 65 LINE SMOOTH",
"99 65 OFFCURVE",
"82 61 OFFCURVE",
"72 44 CURVE SMOOTH",
"60 22 LINE",
"51 8 OFFCURVE",
"62 -8 OFFCURVE",
"155 -8 CURVE SMOOTH",
"159 -8 LINE SMOOTH",
"320 -8 OFFCURVE",
"382 53 OFFCURVE",
"382 140 CURVE SMOOTH",
"382 195 OFFCURVE",
"355 244 OFFCURVE",
"274 272 CURVE SMOOTH",
"195 299 LINE SMOOTH",
"142 317 OFFCURVE",
"118 346 OFFCURVE",
"118 408 CURVE SMOOTH",
"118 427 LINE",
"308 427 LINE SMOOTH",
"332 427 OFFCURVE",
"348 431 OFFCURVE",
"358 448 CURVE",
"371 470 LINE SMOOTH",
"379 484 OFFCURVE",
"368 501 OFFCURVE",
"276 501 CURVE SMOOTH"
);
}
);
width = 432;
},
{
hints = (
{
horizontal = 1;
place = "{-8, 125}";
type = Stem;
},
{
horizontal = 1;
place = "{393, 125}";
type = Stem;
},
{
place = "{32, 127}";
type = Stem;
},
{
place = "{275, 127}";
type = Stem;
}
);
layerId = "5839A0EB-CD27-4B31-AA48-098F33CA22E9";
paths = (
{
closed = 1;
nodes = (
"258 518 LINE SMOOTH",
"99 518 OFFCURVE",
"32 437 OFFCURVE",
"32 351 CURVE SMOOTH",
"32 263 OFFCURVE",
"88 227 OFFCURVE",
"152 208 CURVE SMOOTH",
"217 189 LINE SMOOTH",
"252 178 OFFCURVE",
"275 165 OFFCURVE",
"275 127 CURVE SMOOTH",
"275 117 LINE",
"116 117 LINE SMOOTH",
"101 117 OFFCURVE",
"84 113 OFFCURVE",
"75 94 CURVE",
"53 59 LINE SMOOTH",
"31 22 OFFCURVE",
"38 -8 OFFCURVE",
"140 -8 CURVE SMOOTH",
"176 -8 LINE SMOOTH",
"335 -8 OFFCURVE",
"402 73 OFFCURVE",
"402 160 CURVE SMOOTH",
"402 248 OFFCURVE",
"349 285 OFFCURVE",
"284 304 CURVE SMOOTH",
"219 323 LINE SMOOTH",
"183 333 OFFCURVE",
"160 346 OFFCURVE",
"160 384 CURVE SMOOTH",
"160 393 LINE",
"317 393 LINE SMOOTH",
"332 393 OFFCURVE",
"348 397 OFFCURVE",
"358 416 CURVE SMOOTH",
"380 451 LINE SMOOTH",
"402 488 OFFCURVE",
"395 518 OFFCURVE",
"293 518 CURVE SMOOTH"
);
}
);
width = 435;
}
);
note = s;
unicode = 0073;
},
{
glyphname = u;
lastChange = "2019-02-07 21:08:51 +0000";
layers = (
{
hints = (
{
horizontal = 1;
place = "{-4, 76}";
type = Stem;
},
{
horizontal = 1;
place = "{497, -20}";
target = down;
type = TopGhost;
},
{
place = "{84, 77}";
type = Stem;
},
{
place = "{395, 77}";
type = Stem;
},
{
horizontal = 1;
place = "{0, 21}";
target = up;
type = BottomGhost;
}
);
layerId = "2510F216-D89B-43CC-ACD1-209C5F77631B";
paths = (
{
closed = 1;
nodes = (
"406 497 LINE SMOOTH",
"401 497 OFFCURVE",
"395 491 OFFCURVE",
"395 487 CURVE SMOOTH",
"395 72 LINE",
"338 72 LINE SMOOTH",
"214 72 OFFCURVE",
"161 94 OFFCURVE",
"161 230 CURVE SMOOTH",
"161 487 LINE SMOOTH",
"161 491 OFFCURVE",
"155 497 OFFCURVE",
"150 497 CURVE SMOOTH",
"94 497 LINE SMOOTH",
"89 497 OFFCURVE",
"84 491 OFFCURVE",
"84 487 CURVE SMOOTH",
"84 205 LINE SMOOTH",
"84 50 OFFCURVE",
"175 -4 OFFCURVE",
"281 -4 CURVE SMOOTH",
"337 -4 OFFCURVE",
"364 9 OFFCURVE",
"383 31 CURVE",
"397 48 LINE",
"397 10 LINE SMOOTH",
"397 6 OFFCURVE",
"402 0 OFFCURVE",
"407 0 CURVE SMOOTH",
"462 0 LINE SMOOTH",
"467 0 OFFCURVE",
"472 6 OFFCURVE",
"472 10 CURVE SMOOTH",
"472 487 LINE SMOOTH",
"472 491 OFFCURVE",
"467 497 OFFCURVE",
"462 497 CURVE SMOOTH"
);
}
);
width = 555;
},
{
hints = (
{
horizontal = 1;
place = "{-4, 122}";
type = Stem;
},
{
horizontal = 1;
place = "{514, -20}";
target = down;
type = TopGhost;
},
{
place = "{62, 141}";
type = Stem;
},
{
place = "{349, 141}";
type = Stem;
},
{
horizontal = 1;
place = "{0, 21}";
target = up;
type = BottomGhost;
}
);
layerId = "5839A0EB-CD27-4B31-AA48-098F33CA22E9";
paths = (
{
closed = 1;
nodes = (
"386 514 LINE SMOOTH",
"367 514 OFFCURVE",
"349 498 OFFCURVE",
"349 477 CURVE SMOOTH",
"349 118 LINE",
"312 118 LINE SMOOTH",
"242 118 OFFCURVE",
"203 144 OFFCURVE",
"203 228 CURVE SMOOTH",
"203 477 LINE SMOOTH",
"203 498 OFFCURVE",
"185 514 OFFCURVE",
"166 514 CURVE SMOOTH",
"99 514 LINE SMOOTH",
"80 514 OFFCURVE",
"62 498 OFFCURVE",
"62 477 CURVE SMOOTH",
"62 199 LINE SMOOTH",
"62 50 OFFCURVE",
"144 -4 OFFCURVE",
"252 -4 CURVE SMOOTH",
"291 -4 OFFCURVE",
"312 2 OFFCURVE",
"331 22 CURVE SMOOTH",
"353 44 LINE",
"353 36 LINE SMOOTH",
"353 17 OFFCURVE",
"371 0 OFFCURVE",
"390 0 CURVE SMOOTH",
"452 0 LINE SMOOTH",
"471 0 OFFCURVE",
"489 17 OFFCURVE",
"489 37 CURVE SMOOTH",
"489 477 LINE SMOOTH",
"489 498 OFFCURVE",
"471 514 OFFCURVE",
"452 514 CURVE SMOOTH"
);
}
);
width = 551;
}
);
note = u;
unicode = 0075;
},
{
glyphname = a.ss01;
lastChange = "2019-02-07 21:08:51 +0000";
layers = (
{
hints = (
{
horizontal = 1;
place = "{-4, 74}";
type = Stem;
},
{
horizontal = 1;
place = "{206, 79}";
type = Stem;
},
{
horizontal = 1;
place = "{425, 75}";
type = Stem;
},
{
place = "{55, 72}";
type = Stem;
},
{
place = "{333, 77}";
type = Stem;
},
{
horizontal = 1;
place = "{0, 21}";
target = up;
type = BottomGhost;
}
);
layerId = "2510F216-D89B-43CC-ACD1-209C5F77631B";
paths = (
{
closed = 1;
nodes = (
"57 428 OFFCURVE",
"64 425 OFFCURVE",
"70 425 CURVE SMOOTH",
"157 425 LINE SMOOTH",
"303 425 OFFCURVE",
"332 380 OFFCURVE",
"333 286 CURVE",
"265 286 LINE SMOOTH",
"133 286 OFFCURVE",
"55 243 OFFCURVE",
"55 141 CURVE SMOOTH",
"55 73 OFFCURVE",
"99 -4 OFFCURVE",
"222 -4 CURVE SMOOTH",
"232 -4 LINE SMOOTH",
"271 -4 OFFCURVE",
"291 5 OFFCURVE",
"310 25 CURVE SMOOTH",
"336 50 LINE",
"336 10 LINE SMOOTH",
"336 6 OFFCURVE",
"342 0 OFFCURVE",
"347 0 CURVE SMOOTH",
"399 0 LINE SMOOTH",
"404 0 OFFCURVE",
"410 6 OFFCURVE",
"410 10 CURVE SMOOTH",
"410 291 LINE SMOOTH",
"410 446 OFFCURVE",
"323 501 OFFCURVE",
"199 501 CURVE SMOOTH",
"189 501 LINE SMOOTH",
"127 501 OFFCURVE",
"94 491 OFFCURVE",
"73 464 CURVE SMOOTH",
"60 449 LINE",
"60 447 OFFCURVE",
"57 441 OFFCURVE",
"57 436 CURVE SMOOTH"
);
},
{
closed = 1;
nodes = (
"127 206 LINE",
"333 206 LINE",
"333 70 LINE",
"259 70 LINE SMOOTH",
"170 70 OFFCURVE",
"127 107 OFFCURVE",
"127 185 CURVE SMOOTH"
);
}
);
width = 493;
},
{
hints = (
{
horizontal = 1;
place = "{-4, 113}";
type = Stem;
},
{
horizontal = 1;
place = "{213, 96}";
type = Stem;
},
{
horizontal = 1;
place = "{392, 126}";
type = Stem;
},
{
place = "{30, 126}";
type = Stem;
},
{
place = "{297, 141}";
type = Stem;
},
{
horizontal = 1;
place = "{0, 21}";
target = up;
type = BottomGhost;
}
);
layerId = "5839A0EB-CD27-4B31-AA48-098F33CA22E9";
paths = (
{
closed = 1;
nodes = (
"47 406 OFFCURVE",
"56 392 OFFCURVE",
"76 392 CURVE SMOOTH",
"180 393 LINE SMOOTH",
"257 393 OFFCURVE",
"297 363 OFFCURVE",
"297 309 CURVE",
"267 309 LINE SMOOTH",
"90 309 OFFCURVE",
"30 224 OFFCURVE",
"30 137 CURVE SMOOTH",
"30 51 OFFCURVE",
"95 -4 OFFCURVE",
"179 -4 CURVE SMOOTH",
"203 -4 LINE SMOOTH",
"229 -4 OFFCURVE",
"249 2 OFFCURVE",
"269 22 CURVE SMOOTH",
"300 52 LINE",
"300 37 LINE SMOOTH",
"300 17 OFFCURVE",
"318 0 OFFCURVE",
"337 0 CURVE SMOOTH",
"401 0 LINE SMOOTH",
"420 0 OFFCURVE",
"438 17 OFFCURVE",
"438 37 CURVE SMOOTH",
"438 315 LINE SMOOTH",
"438 464 OFFCURVE",
"346 518 OFFCURVE",
"217 518 CURVE SMOOTH",
"203 518 LINE SMOOTH",
"137 518 OFFCURVE",
"103 504 OFFCURVE",
"84 478 CURVE SMOOTH",
"60 448 LINE",
"53 439 OFFCURVE",
"47 430 OFFCURVE",
"47 417 CURVE SMOOTH"
);
},
{
closed = 1;
nodes = (
"156 213 LINE",
"297 213 LINE",
"297 108 LINE",
"262 108 LINE SMOOTH",
"185 108 OFFCURVE",
"156 138 OFFCURVE",
"156 191 CURVE SMOOTH"
);
}
);
width = 500;
}
);
note = a;
},
{
glyphname = e.ss01;
lastChange = "2019-02-07 21:08:51 +0000";
layers = (
{
background = {
paths = (
{
closed = 1;
nodes = (
"140 366 OFFCURVE",
"194 431 OFFCURVE",
"289 431 CURVE SMOOTH",
"349 431 OFFCURVE",
"381 406 OFFCURVE",
"381 355 CURVE SMOOTH",
"381 310 OFFCURVE",
"356 287 OFFCURVE",
"298 286 CURVE SMOOTH",
"119 284 LINE",
"119 218 LINE",
"291 220 LINE SMOOTH",
"407 222 OFFCURVE",
"463 269 OFFCURVE",
"463 360 CURVE SMOOTH",
"463 445 OFFCURVE",
"398 501 OFFCURVE",
"292 501 CURVE SMOOTH",
"152 501 OFFCURVE",
"57 399 OFFCURVE",
"57 248 CURVE SMOOTH",
"57 228 LINE SMOOTH",
"57 82 OFFCURVE",
"143 -4 OFFCURVE",
"290 -4 CURVE SMOOTH",
"356 -4 OFFCURVE",
"391 8 OFFCURVE",
"405 26 CURVE SMOOTH",
"425 53 LINE SMOOTH",
"440 71 OFFCURVE",
"435 91 OFFCURVE",
"418 86 CURVE SMOOTH",
"377 75 OFFCURVE",
"346 69 OFFCURVE",
"315 69 CURVE SMOOTH",
"190 69 OFFCURVE",
"140 118 OFFCURVE",
"140 248 CURVE SMOOTH"
);
}
);
};
hints = (
{
horizontal = 1;
place = "{-4, 75}";
type = Stem;
},
{
horizontal = 1;
place = "{209, 78}";
type = Stem;
},
{
horizontal = 1;
place = "{420, 81}";
type = Stem;
},
{
place = "{63, 82}";
type = Stem;
},
{
place = "{368, 70}";
type = Stem;
}
);
layerId = "2510F216-D89B-43CC-ACD1-209C5F77631B";
paths = (
{
closed = 1;
nodes = (
"140 373 OFFCURVE",
"192 429 OFFCURVE",
"273 429 CURVE SMOOTH",
"354 429 OFFCURVE",
"397 373 OFFCURVE",
"397 250 CURVE",
"406 297 LINE",
"119 297 LINE",
"119 231 LINE",
"478 231 LINE",
"478 268 LINE SMOOTH",
"478 411 OFFCURVE",
"393 501 OFFCURVE",
"278 501 CURVE SMOOTH",
"146 501 OFFCURVE",
"57 399 OFFCURVE",
"57 248 CURVE SMOOTH",
"57 228 LINE SMOOTH",
"57 82 OFFCURVE",
"143 -4 OFFCURVE",
"298 -4 CURVE SMOOTH",
"356 -4 OFFCURVE",
"404 17 OFFCURVE",
"421 36 CURVE SMOOTH",
"454 71 LINE SMOOTH",
"464 83 OFFCURVE",
"452 103 OFFCURVE",
"435 97 CURVE SMOOTH",
"401 84 OFFCURVE",
"358 71 OFFCURVE",
"306 71 CURVE SMOOTH",
"190 71 OFFCURVE",
"140 118 OFFCURVE",
"140 248 CURVE SMOOTH"
);
}
);
width = 493;
},
{
hints = (
{
horizontal = 1;
place = "{-4, 125}";
type = Stem;
},
{
horizontal = 1;
place = "{208, 96}";
type = Stem;
},
{
horizontal = 1;
place = "{411, 107}";
type = Stem;
},
{
place = "{41, 145}";
type = Stem;
},
{
place = "{328, 125}";
type = Stem;
}
);
layerId = "5839A0EB-CD27-4B31-AA48-098F33CA22E9";
paths = (
{
closed = 1;
nodes = (
"219 208 LINE SMOOTH",
"394 208 OFFCURVE",
"453 291 OFFCURVE",
"453 373 CURVE SMOOTH",
"453 462 OFFCURVE",
"379 518 OFFCURVE",
"279 518 CURVE SMOOTH",
"150 518 OFFCURVE",
"41 440 OFFCURVE",
"41 257 CURVE SMOOTH",
"41 66 OFFCURVE",
"150 -4 OFFCURVE",
"281 -4 CURVE SMOOTH",
"348 -4 OFFCURVE",
"381 10 OFFCURVE",
"401 36 CURVE SMOOTH",
"425 66 LINE",
"431 75 OFFCURVE",
"437 84 OFFCURVE",
"437 96 CURVE SMOOTH",
"437 108 OFFCURVE",
"428 122 OFFCURVE",
"407 122 CURVE SMOOTH",
"324 121 LINE SMOOTH",
"244 121 OFFCURVE",
"204 146 OFFCURVE",
"191 208 CURVE"
);
},
{
closed = 1;
nodes = (
"186 411 LINE",
"223 411 LINE SMOOTH",
"295 411 OFFCURVE",
"328 374 OFFCURVE",
"328 324 CURVE SMOOTH",
"328 304 LINE",
"186 304 LINE"
);
}
);
width = 483;
}
);
leftMetricsKey = o;
note = e;
},
{
glyphname = period;
lastChange = "2019-02-07 21:08:51 +0000";
layers = (
{
layerId = "2510F216-D89B-43CC-ACD1-209C5F77631B";
paths = (
{
closed = 1;
nodes = (
"53 72 LINE",
"50 68 OFFCURVE",
"50 60 OFFCURVE",
"53 56 CURVE SMOOTH",
"113 -4 LINE SMOOTH",
"117 -7 OFFCURVE",
"125 -7 OFFCURVE",
"129 -4 CURVE",
"190 56 LINE",
"193 60 OFFCURVE",
"194 68 OFFCURVE",
"190 72 CURVE",
"129 133 LINE",
"125 137 OFFCURVE",
"117 137 OFFCURVE",
"113 133 CURVE SMOOTH"
);
}
);
width = 244;
},
{
layerId = "5839A0EB-CD27-4B31-AA48-098F33CA22E9";
paths = (
{
closed = 1;
nodes = (
"51 118 LINE SMOOTH",
"36 102 OFFCURVE",
"36 74 OFFCURVE",
"51 58 CURVE SMOOTH",
"106 3 LINE SMOOTH",
"122 -12 OFFCURVE",
"149 -13 OFFCURVE",
"166 3 CURVE SMOOTH",
"220 58 LINE SMOOTH",
"237 74 OFFCURVE",
"236 102 OFFCURVE",
"220 118 CURVE SMOOTH",
"166 172 LINE SMOOTH",
"151 188 OFFCURVE",
"123 189 OFFCURVE",
"106 172 CURVE SMOOTH"
);
}
);
width = 265;
}
);
note = period;
unicode = 002E;
},
